<svg xmlns="http://www.w3.org/2000/svg" viewBox="0 0 280 380">
  <path data-iso="ALA" d="M 224.1,158.8 L 224.1,159.6 L 223.6,159.4 L 224.1,158.8 Z M 219.7,157.9 L 219.9,158.6 L 219.0,158.7 L 219.2,157.6 L 219.7,157.9 Z M 225.1,157.4 L 224.9,158.2 L 224.6,157.8 L 225.1,157.4 Z M 227.8,157.8 L 227.6,157.2 L 227.8,157.8 Z M 223.6,157.9 L 222.6,158.3 L 222.4,156.9 L 222.3,158.4 L 221.6,158.0 L 222.5,158.4 L 222.5,159.3 L 221.8,159.9 L 220.6,159.6 L 219.8,157.4 L 220.8,157.1 L 220.9,158.3 L 221.8,157.3 L 220.7,156.4 L 221.4,155.9 L 224.1,157.3 L 223.6,157.9 Z M 228.9,161.0 L 228.5,161.0 L 228.9,161.0 Z M 226.4,159.9 L 225.6,160.2 L 226.4,159.9 Z M 225.8,159.9 L 225.4,159.7 L 225.8,159.9 Z M 224.1,160.6 L 225.3,160.4 L 224.1,160.6 Z M 222.4,159.7 L 223.3,159.4 L 223.7,160.3 L 222.4,159.7 Z" fill="rgba(13,13,13,0.05)" stroke="rgba(13,13,13,0.18)" stroke-width="0.5" stroke-linejoin="round"/>
  <path data-iso="ALB" d="M 226.1,321.8 L 225.6,322.9 L 225.9,324.0 L 225.2,324.2 L 225.9,325.3 L 225.6,326.5 L 227.1,328.9 L 228.8,329.0 L 228.7,330.0 L 229.3,330.9 L 228.6,332.1 L 227.5,332.5 L 226.6,334.8 L 224.2,335.6 L 224.9,336.8 L 224.1,336.9 L 224.2,337.5 L 223.5,338.1 L 222.1,337.8 L 222.3,336.5 L 221.6,336.2 L 221.3,335.2 L 218.6,334.0 L 217.3,332.5 L 218.6,333.0 L 218.0,331.6 L 218.5,331.5 L 217.4,330.8 L 218.0,328.9 L 218.9,328.8 L 218.7,328.2 L 218.4,328.7 L 218.9,326.4 L 218.0,325.2 L 218.9,324.5 L 218.4,324.0 L 219.5,323.8 L 219.4,322.2 L 217.9,322.0 L 217.9,320.1 L 217.2,319.5 L 220.1,316.0 L 220.7,317.4 L 222.5,316.7 L 223.8,318.5 L 225.5,319.2 L 226.3,321.2 L 226.1,321.8 Z" fill="rgba(13,13,13,0.05)" stroke="rgba(13,13,13,0.18)" stroke-width="0.5" stroke-linejoin="round"/>
  <path data-iso="AND" d="M 96.9,317.1 L 95.5,317.7 L 94.8,316.9 L 95.8,316.0 L 97.0,316.3 L 96.9,317.1 Z" fill="rgba(13,13,13,0.05)" stroke="rgba(13,13,13,0.18)" stroke-width="0.5" stroke-linejoin="round"/>
  <path data-iso="AUT" d="M 201.3,269.0 L 200.6,271.0 L 202.7,274.0 L 201.7,275.1 L 202.2,276.4 L 200.3,276.7 L 198.7,276.0 L 197.6,276.8 L 199.1,277.1 L 199.5,277.8 L 199.2,278.5 L 197.8,279.0 L 198.0,279.9 L 197.6,280.7 L 198.3,281.1 L 197.7,282.0 L 198.1,282.2 L 196.7,282.1 L 194.7,283.6 L 194.9,284.8 L 193.8,284.4 L 192.3,284.5 L 191.1,285.3 L 188.4,285.0 L 186.9,285.4 L 184.8,287.2 L 170.2,284.7 L 169.2,283.2 L 168.3,282.9 L 168.6,281.5 L 165.6,282.4 L 161.7,282.5 L 160.5,284.0 L 157.0,283.4 L 156.3,282.2 L 154.5,283.4 L 152.8,282.8 L 152.7,282.1 L 150.8,281.7 L 150.4,280.1 L 151.3,278.9 L 150.6,277.8 L 152.2,277.4 L 153.9,278.2 L 154.3,279.3 L 155.1,279.2 L 154.8,280.0 L 156.6,279.0 L 156.6,277.5 L 159.6,277.9 L 160.4,279.0 L 162.2,279.0 L 164.8,277.4 L 168.6,277.3 L 169.1,276.2 L 169.0,276.7 L 170.8,277.1 L 172.6,276.8 L 172.7,277.7 L 174.3,278.4 L 174.7,276.8 L 173.5,276.3 L 174.2,275.3 L 172.5,273.0 L 177.0,270.9 L 177.4,269.3 L 179.2,269.7 L 179.8,267.6 L 181.6,269.1 L 183.3,269.4 L 184.2,268.7 L 185.7,269.2 L 186.6,267.6 L 187.5,267.7 L 187.8,265.6 L 193.6,266.8 L 195.4,267.8 L 197.3,268.0 L 198.4,267.3 L 200.8,268.0 L 201.3,269.0 Z" fill="rgba(13,13,13,0.05)" stroke="rgba(13,13,13,0.18)" stroke-width="0.5" stroke-linejoin="round"/>
  <path data-iso="BEL" d="M 102.5,247.8 L 108.1,245.2 L 108.4,246.4 L 109.9,246.0 L 112.1,246.7 L 114.1,245.3 L 114.7,246.1 L 114.4,245.3 L 115.4,245.4 L 115.5,244.4 L 116.9,244.8 L 117.9,244.2 L 118.2,244.9 L 117.8,244.9 L 118.8,245.1 L 119.6,244.3 L 120.9,246.2 L 122.8,246.0 L 125.1,247.1 L 123.7,250.0 L 128.0,251.9 L 127.5,252.7 L 128.6,253.0 L 128.9,254.5 L 127.4,255.3 L 127.1,256.2 L 126.0,255.8 L 124.4,258.1 L 125.5,260.2 L 125.2,260.9 L 122.6,261.5 L 121.2,259.8 L 118.4,259.0 L 118.5,257.9 L 118.0,257.6 L 118.5,255.9 L 115.8,257.7 L 113.5,257.4 L 114.0,256.7 L 113.5,256.1 L 114.0,255.0 L 112.6,254.2 L 110.5,254.6 L 109.9,253.1 L 107.6,252.6 L 106.6,250.5 L 104.3,250.9 L 102.9,249.9 L 103.1,248.9 L 102.5,247.8 Z" fill="rgba(13,13,13,0.05)" stroke="rgba(13,13,13,0.18)" stroke-width="0.5" stroke-linejoin="round"/>
  <path data-iso="BGR" d="M 265.6,323.0 L 263.7,323.1 L 264.5,325.1 L 262.5,326.0 L 258.1,326.5 L 255.7,325.3 L 254.9,325.7 L 253.6,325.0 L 253.1,324.1 L 250.1,324.3 L 249.8,324.9 L 246.9,325.5 L 242.2,325.8 L 242.8,322.8 L 241.6,320.7 L 239.5,319.9 L 238.3,318.6 L 239.6,317.5 L 238.8,316.6 L 239.2,315.4 L 238.8,314.8 L 240.9,314.3 L 242.6,311.9 L 239.5,309.8 L 238.3,307.3 L 238.6,305.9 L 240.0,305.3 L 240.6,304.0 L 243.0,305.1 L 242.0,305.8 L 242.0,307.0 L 246.1,306.7 L 259.2,308.5 L 261.8,307.9 L 264.3,305.7 L 270.3,304.4 L 272.8,305.7 L 274.5,305.6 L 275.1,306.2 L 276.4,305.9 L 276.9,307.0 L 278.5,307.6 L 281.0,307.8 L 280.8,310.0 L 280.2,310.6 L 279.2,310.2 L 277.8,310.4 L 277.1,311.6 L 276.3,311.9 L 276.3,315.6 L 275.2,315.6 L 274.5,316.2 L 274.6,316.7 L 273.3,317.3 L 275.1,317.8 L 275.3,319.0 L 277.1,321.1 L 275.7,320.9 L 273.9,321.6 L 272.0,320.2 L 270.5,320.3 L 269.7,320.9 L 267.4,321.1 L 266.9,322.2 L 265.6,322.5 L 265.6,323.0 Z" fill="rgba(13,13,13,0.05)" stroke="rgba(13,13,13,0.18)" stroke-width="0.5" stroke-linejoin="round"/>
  <path data-iso="BIH" d="M 206.1,314.2 L 205.5,313.9 L 206.2,313.7 L 206.0,313.1 L 203.6,311.1 L 203.5,309.9 L 201.9,309.3 L 197.0,305.2 L 195.6,301.8 L 194.8,301.6 L 195.0,301.0 L 192.9,299.9 L 193.4,296.6 L 194.9,296.4 L 197.0,298.1 L 198.4,296.3 L 200.4,296.7 L 201.1,295.8 L 202.9,296.9 L 206.3,296.8 L 207.4,297.6 L 210.1,296.8 L 212.0,297.6 L 213.1,297.4 L 214.6,299.1 L 216.6,298.6 L 217.9,298.9 L 216.1,302.9 L 219.5,305.4 L 219.0,306.0 L 217.2,305.7 L 216.9,306.1 L 218.5,307.6 L 218.7,309.1 L 217.7,308.8 L 214.7,309.6 L 215.8,311.1 L 215.3,311.4 L 214.1,310.8 L 213.1,311.6 L 212.9,313.3 L 211.6,313.5 L 211.5,314.8 L 212.3,315.9 L 211.9,316.7 L 208.5,315.4 L 207.2,314.1 L 206.1,314.2 Z" fill="rgba(13,13,13,0.05)" stroke="rgba(13,13,13,0.18)" stroke-width="0.5" stroke-linejoin="round"/>
  <path data-iso="CHE" d="M 156.8,283.3 L 156.2,284.8 L 156.8,285.2 L 156.7,285.9 L 155.0,285.2 L 153.9,285.9 L 153.9,286.6 L 154.7,287.0 L 154.5,288.4 L 154.0,288.4 L 153.1,287.2 L 150.5,287.8 L 149.8,286.2 L 148.7,286.3 L 148.4,288.4 L 146.9,289.9 L 147.3,291.0 L 146.9,291.6 L 146.2,291.6 L 146.0,290.6 L 145.3,290.3 L 145.5,289.5 L 143.0,288.3 L 142.7,286.6 L 140.6,288.0 L 140.8,289.2 L 138.8,290.9 L 136.9,290.3 L 133.6,291.1 L 131.6,289.1 L 131.7,286.9 L 130.5,286.6 L 128.4,287.1 L 127.8,287.7 L 128.2,288.3 L 126.0,289.2 L 126.0,288.5 L 126.9,288.2 L 127.2,287.3 L 126.7,286.9 L 127.1,285.5 L 129.2,284.1 L 129.3,282.6 L 130.9,282.0 L 133.4,279.5 L 132.2,279.3 L 133.0,278.2 L 134.4,278.2 L 134.8,278.8 L 137.5,277.3 L 137.8,277.8 L 143.8,277.4 L 144.2,276.8 L 142.7,276.8 L 143.8,275.7 L 146.0,276.8 L 148.7,276.9 L 151.3,278.5 L 150.2,280.5 L 150.1,281.7 L 152.7,282.1 L 152.8,282.8 L 154.5,283.4 L 156.3,282.2 L 156.8,283.3 Z" fill="rgba(13,13,13,0.05)" stroke="rgba(13,13,13,0.18)" stroke-width="0.5" stroke-linejoin="round"/>
  <path data-iso="CZE" d="M 186.7,249.8 L 187.8,249.8 L 187.7,248.6 L 188.9,248.4 L 189.8,248.9 L 190.4,250.5 L 193.4,250.8 L 194.6,251.3 L 194.7,252.0 L 197.1,251.6 L 197.7,252.3 L 196.2,253.7 L 197.2,254.0 L 199.3,256.4 L 201.8,255.3 L 200.9,253.5 L 204.6,255.1 L 206.5,254.5 L 206.8,255.3 L 205.7,255.8 L 206.0,256.3 L 207.4,257.4 L 208.7,257.2 L 208.5,256.8 L 210.5,258.0 L 212.3,258.0 L 212.7,259.6 L 213.9,260.0 L 214.2,261.4 L 212.2,261.6 L 209.6,263.5 L 209.0,265.3 L 206.6,266.8 L 202.8,266.9 L 201.3,269.0 L 200.8,268.0 L 198.4,267.3 L 197.3,268.0 L 195.4,267.8 L 193.6,266.8 L 188.0,265.6 L 187.5,267.7 L 186.6,267.6 L 185.7,269.2 L 184.2,268.7 L 183.3,269.4 L 181.4,269.0 L 178.4,266.1 L 177.2,266.0 L 174.2,263.2 L 171.8,262.1 L 170.0,259.4 L 171.0,258.0 L 169.1,256.8 L 167.9,254.5 L 169.5,255.8 L 170.9,253.8 L 173.9,253.7 L 174.3,252.9 L 177.3,252.0 L 178.1,251.1 L 183.5,249.6 L 183.7,249.2 L 182.7,248.7 L 183.1,248.2 L 184.4,248.2 L 185.0,248.7 L 184.9,249.3 L 185.4,249.2 L 185.3,249.9 L 186.7,249.8 Z" fill="rgba(13,13,13,0.05)" stroke="rgba(13,13,13,0.18)" stroke-width="0.5" stroke-linejoin="round"/>
  <path data-iso="DEU" d="M 179.8,267.6 L 179.2,269.7 L 177.4,269.3 L 177.0,270.9 L 172.5,273.1 L 174.2,275.3 L 173.5,276.3 L 174.7,276.8 L 174.3,278.4 L 172.7,277.7 L 172.6,276.8 L 170.8,277.1 L 169.0,276.7 L 169.1,276.2 L 168.6,277.3 L 164.8,277.4 L 162.2,279.0 L 160.4,279.0 L 159.6,277.9 L 156.6,277.5 L 156.6,279.0 L 154.8,280.0 L 155.1,279.2 L 154.3,279.3 L 153.3,277.8 L 152.2,277.4 L 151.0,277.9 L 148.1,276.7 L 146.0,276.8 L 143.8,275.7 L 142.7,276.8 L 144.2,276.8 L 143.9,277.4 L 137.3,277.6 L 137.7,277.3 L 137.2,277.4 L 136.7,276.4 L 137.4,274.3 L 137.1,273.1 L 138.3,271.2 L 138.7,268.9 L 141.4,266.0 L 137.5,265.4 L 136.0,264.3 L 135.0,264.8 L 133.4,264.8 L 132.6,263.9 L 131.3,264.4 L 129.8,262.1 L 128.7,261.8 L 129.7,258.9 L 128.4,258.6 L 127.0,256.8 L 127.3,255.4 L 128.9,254.5 L 128.6,253.0 L 127.5,252.7 L 128.0,251.9 L 126.1,250.4 L 126.7,249.3 L 125.3,248.4 L 127.3,247.2 L 126.7,246.7 L 127.7,245.1 L 127.6,244.0 L 125.8,241.3 L 127.4,241.1 L 127.2,240.6 L 128.7,241.3 L 131.4,240.5 L 131.8,239.8 L 131.0,239.1 L 133.3,237.6 L 133.5,236.4 L 133.0,235.6 L 131.2,235.5 L 130.9,234.8 L 131.3,233.9 L 133.3,234.0 L 134.5,230.6 L 134.5,228.3 L 134.9,227.7 L 135.7,227.8 L 133.3,227.1 L 133.5,225.9 L 134.1,225.6 L 133.7,225.2 L 134.7,224.4 L 140.2,224.0 L 141.2,225.5 L 140.5,226.3 L 141.4,226.8 L 142.2,226.2 L 141.6,225.8 L 141.9,224.9 L 143.8,225.6 L 143.5,227.3 L 143.9,225.6 L 143.3,224.1 L 144.0,222.5 L 148.3,222.5 L 150.8,225.1 L 152.5,225.6 L 150.8,224.9 L 149.6,222.9 L 146.3,221.9 L 145.7,221.0 L 146.8,221.0 L 147.0,220.4 L 145.6,219.6 L 146.6,218.3 L 144.6,218.8 L 144.1,218.1 L 146.9,216.5 L 144.7,214.4 L 144.5,212.8 L 148.5,213.7 L 150.8,213.1 L 152.5,214.2 L 153.3,213.9 L 153.8,214.7 L 153.2,214.9 L 154.0,215.0 L 153.9,216.0 L 152.6,216.8 L 154.7,216.7 L 155.1,217.0 L 154.7,218.3 L 155.9,217.1 L 158.7,218.4 L 161.5,217.7 L 161.0,217.9 L 161.0,219.6 L 158.9,220.8 L 159.9,221.7 L 161.7,221.2 L 163.7,222.2 L 165.3,219.9 L 168.0,219.5 L 168.2,220.4 L 168.1,219.6 L 171.1,216.7 L 173.7,217.2 L 170.4,217.7 L 169.9,218.4 L 170.2,219.0 L 171.1,217.8 L 173.3,217.9 L 174.3,217.2 L 175.0,218.7 L 177.6,220.5 L 179.1,219.7 L 179.8,220.3 L 179.4,221.0 L 180.5,221.9 L 179.8,222.7 L 182.9,223.6 L 182.6,224.0 L 184.1,228.3 L 183.5,230.1 L 182.1,231.0 L 181.9,232.0 L 185.5,234.5 L 184.8,236.2 L 186.0,237.5 L 185.8,238.6 L 186.3,239.0 L 185.1,241.4 L 186.1,242.7 L 186.0,243.8 L 187.6,244.7 L 188.1,246.4 L 187.6,248.0 L 186.3,250.2 L 185.3,249.9 L 185.4,249.2 L 184.9,249.3 L 185.0,248.7 L 184.4,248.2 L 183.1,248.2 L 182.7,248.7 L 183.7,249.2 L 183.5,249.6 L 178.1,251.1 L 177.3,252.0 L 174.3,252.9 L 173.9,253.7 L 170.9,253.8 L 169.5,255.8 L 167.9,254.5 L 169.1,256.8 L 171.0,258.0 L 170.0,259.4 L 171.8,262.1 L 174.2,263.2 L 175.5,264.7 L 177.4,266.2 L 178.4,266.1 L 179.8,267.6 Z M 182.5,221.9 L 182.5,222.5 L 180.0,222.7 L 180.6,222.3 L 180.4,221.4 L 181.4,221.9 L 181.5,221.3 L 180.7,220.7 L 179.6,221.1 L 179.8,220.4 L 179.4,219.9 L 182.5,221.9 Z M 131.8,225.0 L 130.8,225.1 L 131.8,225.0 Z M 132.3,224.4 L 133.7,224.2 L 132.3,224.4 Z M 134.1,224.0 L 135.5,223.9 L 134.1,224.0 Z M 135.7,223.9 L 136.1,223.9 L 135.7,223.9 Z M 140.8,223.9 L 141.3,223.9 L 140.8,223.9 Z M 136.7,223.5 L 137.4,223.7 L 136.7,223.5 Z M 137.7,223.5 L 138.7,223.3 L 137.7,223.5 Z M 139.1,223.4 L 139.7,223.4 L 139.1,223.4 Z M 163.1,221.5 L 164.0,221.1 L 163.1,221.5 Z M 164.2,220.6 L 164.8,220.3 L 164.2,220.6 Z M 146.6,216.4 L 145.6,216.8 L 146.6,216.4 Z M 162.3,216.8 L 162.7,217.4 L 160.6,216.9 L 161.4,216.3 L 162.3,216.8 Z M 175.2,215.7 L 174.7,216.9 L 175.2,215.7 Z M 179.0,217.6 L 179.5,218.1 L 179.2,218.7 L 178.5,218.3 L 179.0,218.0 L 177.7,218.1 L 176.7,218.7 L 177.0,219.2 L 175.0,218.1 L 176.1,217.7 L 175.3,217.3 L 176.1,216.8 L 175.2,216.2 L 176.3,216.4 L 176.8,215.8 L 176.6,216.4 L 177.7,216.7 L 177.8,215.9 L 176.0,216.0 L 176.3,215.2 L 175.8,215.1 L 176.9,214.8 L 177.2,215.8 L 178.8,216.0 L 178.2,216.9 L 179.0,217.6 Z M 142.3,214.8 L 142.7,215.3 L 142.3,214.8 Z M 143.4,214.2 L 143.9,214.8 L 142.7,214.6 L 143.4,214.2 Z M 142.5,212.3 L 144.5,212.8 L 142.1,213.1 L 141.9,214.3 L 142.0,212.7 L 143.2,211.3 L 142.5,212.3 Z M 144.3,216.2 L 144.8,216.1 L 144.4,216.7 L 144.3,216.2 Z" fill="rgba(13,13,13,0.05)" stroke="rgba(13,13,13,0.18)" stroke-width="0.5" stroke-linejoin="round"/>
  <path data-iso="DNK" d="M 144.5,212.8 L 144.7,210.5 L 143.1,210.8 L 143.3,209.9 L 144.7,210.5 L 144.2,207.6 L 143.0,207.3 L 142.1,206.2 L 141.6,206.4 L 142.1,207.3 L 140.7,206.5 L 141.2,204.7 L 140.9,202.2 L 141.3,203.9 L 142.7,203.0 L 141.9,201.3 L 141.0,201.0 L 140.7,201.8 L 141.2,195.4 L 141.5,195.0 L 142.1,196.6 L 143.9,196.3 L 145.0,197.3 L 145.2,196.5 L 144.7,195.8 L 147.3,194.0 L 148.1,195.0 L 147.3,196.5 L 147.9,195.5 L 148.7,195.8 L 149.1,196.8 L 149.4,196.5 L 148.9,196.5 L 148.9,195.2 L 148.0,195.2 L 148.5,194.6 L 148.0,194.0 L 148.2,192.7 L 153.1,191.5 L 152.3,191.0 L 148.5,192.1 L 147.6,191.5 L 144.7,192.6 L 143.4,194.2 L 143.6,195.2 L 142.8,195.2 L 144.0,195.2 L 143.8,196.2 L 142.1,194.5 L 141.7,194.3 L 141.7,195.1 L 141.7,194.0 L 144.2,190.8 L 149.7,190.4 L 153.5,186.0 L 158.1,184.5 L 156.6,186.3 L 157.4,187.6 L 157.4,189.7 L 156.1,192.0 L 153.2,191.5 L 155.8,192.3 L 155.5,193.0 L 156.0,194.9 L 152.4,195.7 L 156.0,195.1 L 156.0,195.9 L 155.0,197.4 L 156.0,196.1 L 156.9,196.9 L 159.3,196.8 L 160.3,197.6 L 159.9,198.8 L 158.8,200.6 L 158.0,199.7 L 157.5,201.1 L 156.1,200.1 L 157.1,199.9 L 157.2,199.3 L 156.5,199.1 L 155.2,200.6 L 155.6,201.9 L 154.9,203.7 L 152.8,203.5 L 154.0,203.9 L 153.7,205.0 L 150.7,204.9 L 152.7,205.7 L 150.3,207.1 L 151.4,207.2 L 150.9,207.7 L 151.7,209.4 L 150.2,210.3 L 150.7,211.0 L 149.8,211.5 L 151.9,211.9 L 152.0,213.4 L 151.1,212.5 L 149.0,213.7 L 144.5,212.8 Z M 166.3,214.4 L 166.1,215.1 L 163.8,215.4 L 160.5,213.9 L 161.3,213.4 L 160.8,212.6 L 162.1,212.2 L 164.6,213.6 L 165.0,212.6 L 166.3,214.4 Z M 156.8,212.8 L 157.3,213.2 L 156.3,213.4 L 155.0,212.0 L 156.8,212.8 Z M 170.3,211.5 L 171.1,212.3 L 168.2,212.7 L 169.4,211.9 L 169.1,211.2 L 170.3,211.5 Z M 153.8,212.1 L 154.1,213.0 L 153.4,213.1 L 152.2,212.6 L 152.0,212.0 L 152.7,212.3 L 152.3,211.7 L 151.2,211.3 L 152.3,211.0 L 153.8,212.1 Z M 159.6,211.4 L 160.1,210.3 L 159.9,211.5 L 158.5,214.4 L 157.8,213.4 L 159.6,211.4 Z M 189.0,210.5 L 188.4,211.9 L 185.8,210.8 L 186.3,208.8 L 189.0,210.5 Z M 143.3,208.5 L 142.6,207.3 L 143.3,208.5 Z M 158.3,211.2 L 154.2,210.9 L 154.8,210.5 L 153.7,209.9 L 153.6,210.6 L 152.9,208.4 L 151.7,207.3 L 152.4,207.6 L 151.5,207.0 L 155.8,205.8 L 157.3,206.7 L 156.6,207.4 L 156.9,207.5 L 157.9,207.1 L 158.0,205.9 L 158.8,207.1 L 157.5,207.5 L 158.5,207.6 L 159.4,209.0 L 159.0,209.0 L 159.1,210.6 L 158.3,211.2 Z M 171.6,205.1 L 172.0,206.0 L 171.2,206.5 L 171.0,205.8 L 171.6,205.1 Z M 157.5,203.4 L 157.4,202.1 L 158.3,203.3 L 157.7,204.4 L 157.2,203.8 L 157.5,203.4 Z M 167.7,212.8 L 168.6,213.4 L 167.1,214.7 L 167.1,215.9 L 165.4,212.4 L 166.6,212.0 L 164.8,210.9 L 166.2,211.3 L 165.5,210.6 L 166.1,210.4 L 165.5,209.8 L 162.3,209.9 L 161.9,208.5 L 161.2,208.4 L 162.0,207.9 L 161.1,206.9 L 161.5,206.0 L 160.1,205.4 L 161.2,205.4 L 159.7,204.6 L 161.9,205.0 L 163.0,204.5 L 162.9,203.7 L 164.0,203.0 L 162.4,202.1 L 165.8,202.4 L 165.1,203.0 L 165.5,203.9 L 164.7,204.2 L 165.6,204.1 L 165.8,204.5 L 165.1,204.7 L 165.9,205.4 L 167.1,203.5 L 167.0,202.7 L 167.8,204.7 L 166.8,205.4 L 167.8,205.5 L 167.6,202.7 L 166.5,202.3 L 169.1,200.8 L 171.7,201.6 L 170.9,202.8 L 171.5,204.9 L 168.8,207.1 L 170.6,209.0 L 167.5,210.2 L 168.6,210.8 L 168.4,211.9 L 166.7,211.9 L 166.6,212.5 L 167.7,212.8 Z M 164.1,195.2 L 165.0,194.8 L 164.1,195.2 Z M 145.7,194.7 L 144.5,195.3 L 143.5,194.7 L 144.6,193.8 L 144.5,193.2 L 146.3,192.3 L 145.7,194.7 Z M 161.5,188.7 L 161.8,189.1 L 161.0,189.1 L 160.7,190.0 L 159.6,189.4 L 161.5,188.7 Z" fill="rgba(13,13,13,0.05)" stroke="rgba(13,13,13,0.18)" stroke-width="0.5" stroke-linejoin="round"/>
  <path data-iso="ESP" d="M 48.6,364.6 L 48.2,364.0 L 49.0,364.1 L 48.6,364.6 Z M 65.0,368.1 L 65.2,368.4 L 65.0,368.1 Z M 72.9,310.5 L 73.2,311.2 L 75.6,311.6 L 75.2,313.1 L 76.4,312.6 L 77.3,313.4 L 80.0,313.8 L 81.3,315.1 L 83.0,314.6 L 84.9,315.8 L 86.4,315.5 L 87.1,315.9 L 89.7,315.8 L 89.7,314.6 L 90.8,314.7 L 94.4,315.6 L 95.1,317.7 L 96.9,317.1 L 99.0,318.3 L 100.8,317.7 L 102.4,318.5 L 105.3,317.4 L 107.0,317.7 L 107.0,318.3 L 107.9,318.5 L 106.6,319.3 L 107.2,320.4 L 107.1,321.7 L 100.9,324.8 L 99.8,326.0 L 92.2,327.9 L 90.1,329.6 L 91.1,330.5 L 89.8,331.4 L 89.3,331.3 L 90.2,330.9 L 89.1,331.2 L 83.0,339.0 L 84.1,342.6 L 86.8,344.5 L 81.7,347.3 L 81.7,348.3 L 80.9,348.6 L 80.0,351.1 L 79.3,351.5 L 80.4,352.4 L 76.1,352.8 L 73.8,354.2 L 72.8,355.2 L 72.2,357.1 L 70.6,358.5 L 69.0,357.8 L 67.7,357.9 L 66.6,358.9 L 65.1,358.4 L 55.0,358.6 L 53.3,360.1 L 49.7,360.7 L 48.6,362.6 L 48.0,362.3 L 47.9,363.1 L 46.8,363.5 L 43.8,362.2 L 42.0,359.9 L 42.9,360.0 L 41.4,359.2 L 41.1,358.4 L 42.8,357.1 L 41.7,357.3 L 41.4,358.0 L 40.7,356.9 L 38.0,355.5 L 38.3,354.6 L 37.5,355.0 L 37.7,355.5 L 34.4,355.3 L 33.7,352.5 L 35.4,349.9 L 37.1,349.6 L 37.6,348.3 L 36.5,348.5 L 34.8,346.6 L 35.4,344.5 L 36.9,343.7 L 37.4,342.6 L 35.5,341.2 L 35.1,339.4 L 33.4,337.8 L 37.1,337.7 L 38.1,335.4 L 37.0,334.2 L 38.7,332.9 L 38.2,332.3 L 38.5,329.3 L 37.6,328.1 L 38.6,327.8 L 39.7,326.3 L 41.9,325.2 L 42.7,324.1 L 40.4,323.4 L 40.5,321.9 L 39.9,321.2 L 36.3,321.0 L 35.8,321.8 L 34.2,322.3 L 32.3,321.6 L 31.1,321.9 L 31.0,321.5 L 29.2,322.3 L 28.8,321.6 L 29.7,320.6 L 29.0,320.4 L 28.9,319.7 L 26.1,320.5 L 24.4,321.7 L 24.3,320.0 L 26.1,318.3 L 24.5,319.0 L 25.9,317.6 L 24.6,317.9 L 23.9,317.4 L 24.7,317.4 L 25.4,315.8 L 23.4,316.8 L 23.3,315.6 L 24.3,314.7 L 22.9,315.2 L 22.6,314.0 L 21.7,314.2 L 21.6,313.0 L 22.8,312.3 L 22.1,312.2 L 24.0,311.6 L 23.6,311.3 L 24.7,310.8 L 25.7,311.2 L 28.1,310.3 L 29.0,311.0 L 29.2,310.3 L 28.3,310.0 L 29.2,309.7 L 28.1,309.8 L 28.3,309.1 L 31.0,307.6 L 31.4,308.3 L 32.6,307.4 L 32.5,307.9 L 34.7,308.2 L 35.4,309.2 L 36.9,309.2 L 36.9,309.8 L 37.6,309.1 L 43.6,309.1 L 45.1,308.4 L 46.3,309.2 L 48.3,309.2 L 48.1,309.6 L 54.5,310.5 L 59.0,309.6 L 59.4,309.8 L 59.1,310.2 L 60.7,309.5 L 61.7,309.9 L 61.5,310.3 L 64.6,311.0 L 65.0,310.1 L 66.2,310.0 L 66.8,310.6 L 70.6,311.2 L 72.9,310.5 Z M 80.2,351.5 L 80.2,352.1 L 80.2,351.5 Z M 95.7,344.9 L 94.7,345.2 L 95.0,344.4 L 95.7,344.9 Z M 96.2,342.0 L 96.3,342.5 L 94.8,343.9 L 93.5,343.5 L 94.5,342.1 L 96.2,342.0 Z M 108.2,337.1 L 109.0,337.3 L 108.9,338.0 L 107.5,339.9 L 106.2,340.7 L 105.5,340.1 L 104.3,340.0 L 103.6,338.7 L 102.3,339.3 L 101.3,338.6 L 104.5,336.4 L 107.0,335.7 L 106.4,336.1 L 107.2,336.3 L 106.7,337.0 L 108.2,337.1 Z M 114.7,336.0 L 114.9,336.5 L 114.3,336.8 L 111.4,336.0 L 111.3,335.4 L 113.3,334.9 L 114.7,336.0 Z M 105.6,341.5 L 105.2,341.6 L 105.6,341.5 Z" fill="rgba(13,13,13,0.05)" stroke="rgba(13,13,13,0.18)" stroke-width="0.5" stroke-linejoin="round"/>
  <path data-iso="EST" d="M 251.7,183.2 L 253.4,178.3 L 252.1,177.7 L 250.4,179.3 L 247.8,178.2 L 247.4,176.3 L 246.2,175.9 L 246.2,174.5 L 248.7,173.7 L 245.7,173.8 L 246.4,173.2 L 245.6,172.0 L 247.0,171.5 L 246.6,170.7 L 247.0,171.1 L 246.5,171.6 L 245.5,171.0 L 246.3,170.5 L 246.0,169.0 L 250.2,168.3 L 249.8,167.1 L 251.1,167.4 L 250.7,166.9 L 251.9,166.2 L 254.9,166.4 L 255.1,165.1 L 259.3,166.0 L 260.2,165.5 L 259.8,164.0 L 261.1,165.1 L 261.2,164.0 L 262.1,165.0 L 263.2,164.4 L 269.7,166.4 L 276.1,166.9 L 277.1,166.1 L 278.3,167.2 L 276.2,168.3 L 275.0,171.3 L 273.4,172.6 L 273.0,173.9 L 274.0,177.7 L 273.5,179.5 L 274.5,180.9 L 274.7,182.7 L 275.6,183.3 L 273.7,183.8 L 272.4,186.1 L 272.6,186.7 L 269.3,185.7 L 266.7,186.8 L 263.5,184.2 L 263.4,183.4 L 260.6,182.7 L 258.4,181.0 L 258.0,182.0 L 257.1,181.1 L 251.7,183.2 Z M 249.2,180.6 L 249.7,180.2 L 249.2,180.6 Z M 244.3,176.5 L 245.0,177.2 L 243.8,176.8 L 240.9,179.5 L 237.9,179.8 L 237.3,181.9 L 236.2,182.7 L 235.6,182.0 L 237.3,180.3 L 234.8,178.7 L 236.0,178.1 L 234.8,176.5 L 235.9,176.4 L 236.5,177.4 L 237.2,176.1 L 237.8,176.5 L 237.9,175.8 L 239.7,175.2 L 242.2,175.3 L 244.3,176.5 Z M 245.4,175.7 L 244.4,176.2 L 243.2,175.5 L 244.1,174.7 L 245.4,175.7 Z M 245.2,170.9 L 244.8,171.6 L 243.5,171.0 L 245.2,170.9 Z M 237.9,172.4 L 236.3,171.8 L 239.1,171.6 L 240.3,170.3 L 242.3,171.4 L 243.0,173.0 L 241.7,173.6 L 241.2,173.1 L 239.7,174.6 L 239.1,174.3 L 238.8,172.8 L 237.9,172.4 Z M 253.1,164.8 L 253.3,165.3 L 253.1,164.8 Z" fill="rgba(13,13,13,0.05)" stroke="rgba(13,13,13,0.18)" stroke-width="0.5" stroke-linejoin="round"/>
  <path data-iso="FIN" d="M 283.5,43.4 L 279.8,45.4 L 282.5,46.4 L 280.1,51.0 L 281.5,55.9 L 286.1,57.9 L 288.3,61.5 L 290.8,63.5 L 290.1,66.1 L 287.4,69.1 L 284.2,74.6 L 290.0,85.7 L 291.5,91.1 L 291.4,91.8 L 288.7,92.2 L 289.6,93.0 L 288.8,94.0 L 288.8,96.2 L 287.8,97.4 L 289.6,97.8 L 289.7,98.9 L 287.9,100.0 L 288.2,101.7 L 289.2,103.1 L 291.5,103.5 L 291.9,105.1 L 290.4,106.1 L 291.2,107.3 L 290.9,108.3 L 294.5,110.5 L 294.5,113.0 L 292.1,115.9 L 290.6,116.5 L 293.9,119.9 L 298.9,123.1 L 301.5,126.8 L 299.2,131.7 L 285.2,146.4 L 275.2,154.0 L 275.0,155.0 L 273.3,155.2 L 271.7,154.7 L 272.3,154.5 L 271.6,153.9 L 269.9,155.4 L 267.1,155.6 L 266.6,155.0 L 267.3,153.8 L 268.5,154.0 L 267.8,153.1 L 265.6,156.2 L 262.7,155.0 L 264.0,156.7 L 263.6,157.1 L 262.2,155.9 L 262.8,157.7 L 261.6,156.8 L 262.3,157.4 L 261.5,157.6 L 261.0,156.3 L 260.1,156.8 L 259.9,157.7 L 258.6,157.4 L 256.7,158.7 L 256.4,158.0 L 256.1,158.8 L 255.1,158.3 L 254.2,159.3 L 253.4,158.7 L 253.7,159.7 L 252.7,160.5 L 252.7,159.9 L 251.7,160.4 L 251.8,159.5 L 245.7,160.9 L 246.5,159.6 L 244.4,161.5 L 244.5,162.1 L 242.1,162.5 L 245.0,160.3 L 243.5,161.2 L 244.5,159.9 L 243.0,159.9 L 242.9,158.9 L 241.9,158.7 L 243.3,156.4 L 239.5,158.1 L 240.3,157.3 L 239.0,157.4 L 240.2,156.0 L 237.9,156.1 L 235.2,154.5 L 234.4,155.1 L 234.8,153.4 L 233.2,154.9 L 232.6,154.1 L 233.0,154.1 L 231.8,153.9 L 232.3,153.6 L 231.5,152.7 L 232.3,152.2 L 231.3,151.1 L 232.0,150.3 L 231.1,148.5 L 232.4,148.5 L 232.1,147.2 L 232.9,146.8 L 232.3,146.4 L 232.8,146.0 L 232.6,144.9 L 232.1,144.6 L 233.0,144.4 L 231.9,143.6 L 233.1,143.6 L 232.4,142.7 L 234.0,143.1 L 232.7,141.7 L 232.6,141.0 L 233.1,141.2 L 232.3,140.4 L 231.9,138.7 L 230.7,137.8 L 231.6,134.5 L 231.2,134.9 L 231.4,133.4 L 230.9,132.8 L 230.5,133.7 L 230.4,132.7 L 230.0,132.8 L 229.9,131.0 L 230.4,130.5 L 229.5,130.5 L 230.2,129.1 L 229.8,128.3 L 231.7,127.1 L 232.1,125.2 L 233.8,125.3 L 232.5,123.1 L 235.2,122.5 L 235.1,123.5 L 235.8,123.9 L 236.1,122.7 L 238.2,122.2 L 238.5,121.7 L 237.2,120.4 L 238.7,120.5 L 237.8,119.2 L 238.7,120.1 L 239.9,117.0 L 241.2,118.0 L 242.1,117.0 L 241.6,116.7 L 242.2,116.5 L 242.1,115.9 L 242.8,116.3 L 243.2,115.1 L 245.6,114.2 L 245.5,112.6 L 246.9,113.0 L 246.7,111.9 L 249.2,110.2 L 249.6,108.4 L 252.0,106.6 L 253.6,103.3 L 253.3,103.0 L 257.1,101.5 L 258.9,102.7 L 258.9,101.6 L 257.8,100.9 L 259.5,100.9 L 258.9,99.2 L 257.9,98.9 L 258.7,97.5 L 258.7,96.0 L 258.3,95.5 L 258.9,95.1 L 258.7,93.8 L 255.5,91.8 L 254.2,92.1 L 253.4,90.4 L 254.5,88.4 L 253.2,89.9 L 251.0,90.2 L 249.7,86.5 L 247.5,83.7 L 247.2,80.9 L 248.8,79.5 L 248.9,76.8 L 249.6,76.1 L 246.7,71.2 L 246.9,69.6 L 248.1,68.5 L 248.0,67.4 L 245.7,66.4 L 246.5,65.0 L 246.0,60.9 L 247.3,59.7 L 244.8,56.8 L 243.9,57.1 L 243.2,54.6 L 241.4,53.1 L 236.4,51.8 L 228.4,45.5 L 228.4,44.2 L 226.5,43.3 L 227.3,42.3 L 229.5,43.3 L 230.1,42.5 L 229.3,41.1 L 229.7,40.2 L 233.4,39.7 L 238.4,46.6 L 238.7,48.3 L 244.1,49.7 L 249.1,46.7 L 255.8,50.6 L 257.4,49.2 L 257.8,46.7 L 260.8,45.8 L 261.9,44.0 L 261.5,40.5 L 263.3,33.1 L 264.7,32.7 L 267.0,29.3 L 270.8,29.7 L 276.1,26.9 L 279.8,31.3 L 284.9,33.5 L 286.2,36.6 L 282.8,40.7 L 282.7,42.5 L 283.5,43.4 Z M 238.7,159.8 L 238.9,160.4 L 238.5,160.5 L 238.3,159.7 L 238.7,159.8 Z M 232.5,158.9 L 233.5,158.7 L 232.5,158.9 Z M 234.1,158.3 L 235.1,158.4 L 234.0,159.1 L 234.1,158.3 Z M 231.5,158.0 L 232.1,158.4 L 231.5,158.0 Z M 236.3,158.0 L 236.0,158.9 L 235.5,158.4 L 236.3,158.0 Z M 262.0,158.1 L 262.5,158.0 L 262.0,158.1 Z M 237.3,158.1 L 237.9,157.7 L 237.3,158.1 Z M 260.7,157.7 L 260.4,157.1 L 261.1,157.7 L 260.7,157.7 Z M 241.7,157.7 L 242.4,157.4 L 240.9,160.3 L 239.1,160.4 L 238.8,159.1 L 240.0,158.8 L 238.7,158.7 L 239.0,157.9 L 241.7,157.7 Z M 236.6,156.9 L 238.2,157.2 L 236.6,156.9 Z M 238.6,156.8 L 239.2,156.8 L 238.6,156.8 Z M 235.9,156.7 L 234.5,156.2 L 234.6,155.2 L 235.9,156.7 Z M 234.0,155.0 L 234.3,154.5 L 234.0,155.0 Z M 231.2,155.0 L 230.6,154.2 L 231.2,155.0 Z M 231.8,154.2 L 232.4,154.5 L 232.1,155.1 L 231.3,154.5 L 231.8,154.2 Z M 231.1,154.1 L 230.5,153.5 L 230.9,153.2 L 231.1,154.1 Z M 230.9,150.5 L 230.4,150.4 L 231.1,150.4 L 230.9,149.5 L 231.6,150.0 L 230.9,150.5 Z M 231.9,122.7 L 230.7,123.8 L 229.6,122.2 L 230.7,122.2 L 230.4,122.9 L 231.0,123.1 L 231.9,122.7 Z M 231.2,122.2 L 230.6,121.6 L 231.4,121.2 L 231.2,122.2 Z M 256.4,99.8 L 255.2,99.9 L 254.5,100.4 L 255.3,100.8 L 254.6,101.1 L 253.5,100.0 L 256.4,99.8 Z M 249.0,160.7 L 248.6,160.9 L 249.0,160.7 Z M 242.0,159.6 L 241.9,160.3 L 242.0,159.6 Z M 242.5,159.2 L 241.7,159.5 L 242.5,159.2 Z M 235.8,158.9 L 235.4,159.0 L 235.8,158.9 Z M 238.0,158.3 L 238.5,158.2 L 238.0,158.3 Z M 235.6,157.3 L 235.0,157.0 L 235.6,157.3 Z M 238.0,156.3 L 237.0,156.5 L 238.0,156.3 Z M 237.3,156.1 L 236.6,156.5 L 237.3,156.1 Z M 267.4,155.4 L 266.8,155.9 L 267.4,155.4 Z M 236.1,121.7 L 235.8,122.2 L 236.1,121.7 Z M 236.9,122.6 L 236.4,121.8 L 237.5,121.5 L 236.9,122.6 Z M 235.6,121.6 L 236.6,121.0 L 235.6,121.6 Z M 241.4,116.1 L 240.6,116.3 L 241.4,116.1 Z M 239.3,161.7 L 238.7,161.9 L 239.3,161.7 Z M 230.8,150.8 L 230.3,150.8 L 230.8,150.8 Z M 231.9,147.2 L 231.4,147.0 L 231.9,147.2 Z M 232.6,141.9 L 232.2,141.9 L 232.6,141.9 Z M 230.5,126.3 L 229.9,125.7 L 230.5,126.3 Z" fill="rgba(13,13,13,0.05)" stroke="rgba(13,13,13,0.18)" stroke-width="0.5" stroke-linejoin="round"/>
  <path data-iso="FRO" d="M 39.6,144.6 L 37.5,142.0 L 39.2,142.7 L 38.6,142.8 L 39.5,143.7 L 38.7,143.8 L 39.6,144.6 Z M 39.9,139.7 L 39.6,140.6 L 37.9,138.7 L 39.9,139.7 Z M 34.6,136.5 L 34.3,135.9 L 35.8,135.7 L 37.0,136.6 L 35.9,137.4 L 34.6,136.5 Z M 35.7,135.6 L 35.9,133.9 L 36.8,134.2 L 38.3,135.9 L 37.9,136.4 L 38.6,136.5 L 38.3,137.0 L 39.2,137.2 L 39.3,138.3 L 35.7,135.6 Z M 36.9,134.2 L 37.7,133.7 L 37.9,134.8 L 38.5,134.2 L 40.2,136.0 L 39.5,135.8 L 40.0,136.2 L 39.6,136.9 L 38.9,135.5 L 38.5,135.4 L 39.0,136.4 L 36.9,134.2 Z M 40.4,135.4 L 40.4,133.2 L 41.5,134.5 L 40.7,134.6 L 41.3,135.4 L 40.4,135.4 Z M 33.4,136.3 L 32.8,136.4 L 33.4,136.3 Z M 41.9,134.0 L 41.6,134.7 L 41.9,134.0 Z M 40.1,134.2 L 39.4,133.3 L 40.1,134.2 Z M 39.6,134.5 L 38.7,133.2 L 39.6,134.5 Z M 41.3,133.8 L 40.3,133.0 L 41.3,133.8 Z" fill="rgba(13,13,13,0.05)" stroke="rgba(13,13,13,0.18)" stroke-width="0.5" stroke-linejoin="round"/>
  <path data-iso="GGY" d="M 67.5,261.5 L 68.1,261.4 L 67.8,262.0 L 66.9,262.0 L 67.5,261.5 Z M 70.3,259.5 L 70.0,259.7 L 70.3,259.5 Z" fill="rgba(13,13,13,0.05)" stroke="rgba(13,13,13,0.18)" stroke-width="0.5" stroke-linejoin="round"/>
  <path data-iso="GRC" d="M 228.8,329.4 L 233.0,329.2 L 236.2,327.1 L 240.7,327.2 L 241.2,325.8 L 246.9,325.5 L 251.2,324.1 L 253.1,324.1 L 253.6,325.0 L 254.9,325.7 L 255.7,325.3 L 258.4,326.5 L 264.1,325.6 L 264.4,324.4 L 263.6,323.2 L 264.8,322.7 L 267.4,323.8 L 267.7,325.3 L 267.5,325.8 L 265.5,326.5 L 265.8,328.5 L 263.9,330.2 L 263.3,329.7 L 263.7,329.5 L 260.1,329.2 L 257.4,328.2 L 255.1,329.3 L 253.9,329.3 L 253.1,328.5 L 250.4,330.2 L 247.8,330.1 L 247.5,330.6 L 249.0,331.6 L 248.4,331.8 L 248.7,332.5 L 249.6,332.7 L 249.7,332.3 L 252.3,334.4 L 251.7,334.6 L 250.8,333.5 L 249.2,332.9 L 247.8,332.9 L 247.7,333.7 L 249.5,334.7 L 249.5,335.8 L 248.4,335.4 L 247.4,333.9 L 245.8,333.5 L 245.1,333.9 L 245.2,334.4 L 247.9,336.0 L 245.2,335.8 L 244.8,333.8 L 242.0,332.7 L 241.5,331.9 L 242.6,331.5 L 242.1,330.8 L 239.9,332.1 L 240.4,332.8 L 239.8,335.1 L 245.1,341.4 L 243.1,342.0 L 244.2,341.4 L 243.7,340.6 L 242.3,340.1 L 241.6,341.1 L 242.7,342.2 L 242.5,342.6 L 243.3,342.4 L 241.3,343.5 L 239.5,343.7 L 243.0,344.5 L 243.5,345.2 L 244.8,345.1 L 244.7,345.8 L 245.4,346.0 L 245.0,346.2 L 246.6,346.2 L 247.4,347.2 L 249.3,347.7 L 250.2,348.5 L 249.5,348.9 L 250.2,351.2 L 249.8,352.1 L 246.6,349.9 L 246.7,349.4 L 242.7,350.5 L 244.0,351.0 L 243.6,351.5 L 243.9,352.4 L 245.1,353.0 L 244.9,352.4 L 245.5,352.2 L 245.5,353.1 L 246.4,353.6 L 244.5,353.9 L 243.9,354.6 L 243.3,354.2 L 243.7,353.6 L 240.9,352.7 L 243.5,358.2 L 243.0,359.1 L 244.1,360.6 L 242.6,360.0 L 241.3,358.1 L 240.6,358.0 L 239.9,358.2 L 239.2,359.4 L 239.3,360.9 L 238.3,360.0 L 238.6,358.7 L 236.8,357.2 L 236.9,356.5 L 235.5,356.7 L 235.7,358.1 L 235.1,358.6 L 233.9,357.9 L 233.9,357.1 L 233.0,355.9 L 233.7,353.9 L 229.8,350.6 L 231.3,349.6 L 231.6,348.2 L 233.3,348.6 L 234.9,347.3 L 241.8,350.1 L 242.6,349.9 L 241.9,349.4 L 243.9,349.2 L 244.3,348.6 L 241.4,348.1 L 240.3,347.0 L 239.8,347.7 L 238.7,346.5 L 238.5,347.3 L 237.2,347.4 L 235.6,346.8 L 232.6,347.6 L 231.3,346.2 L 231.4,346.9 L 230.1,347.6 L 229.0,345.0 L 228.1,344.1 L 227.2,344.0 L 227.7,343.6 L 227.5,343.0 L 229.6,343.6 L 230.3,343.5 L 230.1,342.7 L 229.6,342.2 L 229.4,342.6 L 228.0,342.4 L 227.8,341.8 L 227.3,342.5 L 227.9,342.9 L 227.2,343.0 L 225.5,340.7 L 223.8,339.8 L 224.0,339.0 L 223.1,338.9 L 223.4,338.2 L 222.2,337.7 L 223.9,337.9 L 224.1,336.9 L 224.9,336.8 L 224.2,335.6 L 226.6,334.8 L 227.5,332.5 L 229.2,331.5 L 228.8,329.4 Z M 250.5,371.3 L 249.9,371.3 L 250.5,371.3 Z M 270.0,367.4 L 269.1,367.8 L 270.0,367.4 Z M 265.5,368.2 L 265.2,369.6 L 264.3,370.3 L 256.6,370.8 L 254.7,370.8 L 254.7,369.8 L 252.4,369.0 L 246.3,368.3 L 246.7,366.4 L 247.7,366.8 L 247.8,365.7 L 248.3,366.7 L 250.9,366.3 L 250.9,366.8 L 250.1,366.9 L 251.3,367.1 L 251.9,368.0 L 254.5,367.4 L 259.6,368.3 L 261.7,368.0 L 261.3,369.1 L 261.9,369.5 L 263.7,368.7 L 264.5,368.9 L 265.5,368.2 Z M 271.6,366.8 L 271.1,367.6 L 270.6,366.3 L 271.7,364.7 L 271.2,366.0 L 271.6,366.8 Z M 244.7,364.2 L 245.0,364.7 L 244.7,364.2 Z M 242.8,361.4 L 243.5,361.9 L 242.7,362.6 L 242.1,361.3 L 242.4,360.9 L 242.8,361.4 Z M 261.5,360.9 L 262.3,361.0 L 261.5,360.9 Z M 278.6,360.6 L 277.6,363.2 L 275.2,364.1 L 275.3,363.0 L 274.8,362.4 L 276.3,361.2 L 278.6,360.6 Z M 259.1,360.2 L 259.7,360.6 L 259.6,361.2 L 258.9,361.1 L 259.4,360.9 L 259.1,360.2 Z M 272.9,360.5 L 273.2,360.8 L 272.7,360.9 L 272.2,360.3 L 272.9,360.5 Z M 265.8,359.2 L 266.5,359.5 L 265.4,360.0 L 265.1,359.5 L 266.1,359.5 L 265.8,359.2 Z M 276.1,359.5 L 275.9,359.9 L 275.4,359.6 L 275.9,359.1 L 276.1,359.5 Z M 255.5,359.0 L 256.2,359.4 L 255.5,359.0 Z M 257.5,358.6 L 256.9,359.2 L 257.5,358.6 Z M 234.3,358.4 L 234.4,358.7 L 234.3,358.4 Z M 252.8,358.4 L 253.3,358.3 L 253.3,358.9 L 251.8,359.1 L 252.0,358.4 L 252.5,358.7 L 252.4,358.3 L 252.8,358.4 Z M 258.3,358.6 L 258.6,358.1 L 259.3,358.6 L 259.0,359.1 L 258.3,358.6 Z M 233.8,358.5 L 234.0,358.1 L 233.8,358.5 Z M 253.8,357.8 L 253.2,357.9 L 253.8,357.8 Z M 259.3,357.8 L 259.7,357.6 L 259.3,357.8 Z M 272.1,357.3 L 272.6,357.6 L 270.1,358.4 L 270.0,358.9 L 269.6,358.6 L 272.1,357.3 Z M 260.6,357.5 L 261.1,357.4 L 260.6,357.5 Z M 263.3,357.1 L 263.8,357.4 L 261.5,358.1 L 263.3,357.1 Z M 257.0,357.0 L 256.9,356.4 L 257.0,357.0 Z M 254.4,356.4 L 254.8,357.0 L 254.5,357.3 L 254.0,356.5 L 254.4,356.4 Z M 269.5,357.0 L 269.8,356.5 L 269.4,356.0 L 270.5,356.7 L 269.5,357.0 Z M 258.4,356.3 L 257.2,356.6 L 258.1,355.6 L 258.5,355.6 L 258.4,356.3 Z M 260.1,355.3 L 260.4,356.5 L 259.5,357.2 L 258.8,356.1 L 260.1,355.3 Z M 252.6,355.4 L 253.2,355.3 L 253.2,355.8 L 252.5,355.8 L 252.6,355.4 Z M 243.6,354.7 L 243.9,355.0 L 243.6,354.7 Z M 246.8,354.1 L 245.3,354.6 L 246.8,354.1 Z M 252.1,353.8 L 252.6,353.3 L 252.9,353.8 L 252.1,354.5 L 252.1,353.8 Z M 259.2,353.8 L 258.6,353.8 L 258.6,353.3 L 259.6,353.4 L 259.2,353.8 Z M 256.1,353.6 L 255.6,354.1 L 255.7,353.1 L 256.1,353.6 Z M 246.0,352.8 L 246.4,353.0 L 245.7,353.0 L 246.0,352.8 Z M 257.1,352.6 L 256.4,351.9 L 258.2,352.6 L 257.9,353.0 L 257.1,352.6 Z M 252.2,351.9 L 252.3,352.3 L 251.5,353.0 L 252.2,351.9 Z M 265.8,351.9 L 264.9,352.7 L 263.1,353.1 L 263.8,352.2 L 265.8,351.9 Z M 246.5,351.3 L 246.1,352.0 L 245.7,351.4 L 246.5,351.3 Z M 270.5,351.6 L 268.8,352.2 L 268.2,351.7 L 267.4,352.0 L 267.3,351.5 L 268.8,351.0 L 270.6,351.3 L 270.5,351.6 Z M 228.4,351.2 L 229.0,351.8 L 228.3,351.6 L 227.8,352.1 L 226.4,350.7 L 227.1,350.2 L 228.4,351.2 Z M 256.4,351.3 L 256.2,351.9 L 254.4,350.0 L 254.9,349.7 L 256.1,350.4 L 256.4,351.3 Z M 245.5,350.4 L 246.2,349.9 L 245.7,349.8 L 246.7,350.0 L 245.5,350.4 Z M 227.2,349.3 L 225.7,348.9 L 225.3,347.8 L 225.1,348.5 L 224.6,348.4 L 224.9,347.2 L 225.8,347.3 L 225.9,346.4 L 226.5,347.9 L 226.9,347.7 L 227.7,348.8 L 227.2,349.3 Z M 227.1,347.0 L 227.4,347.4 L 227.0,347.5 L 226.4,346.3 L 227.1,347.0 Z M 228.6,345.5 L 228.3,345.9 L 228.6,345.5 Z M 264.4,345.9 L 264.1,348.2 L 263.4,348.6 L 262.5,348.2 L 263.2,347.0 L 262.3,345.6 L 264.4,345.9 Z M 260.5,345.4 L 260.3,346.0 L 260.0,345.5 L 260.5,345.4 Z M 226.2,345.4 L 226.2,344.5 L 226.9,343.7 L 227.1,345.3 L 226.2,345.4 Z M 254.2,344.0 L 253.5,344.3 L 253.4,343.8 L 252.6,343.5 L 252.8,342.9 L 254.2,344.0 Z M 253.6,348.6 L 253.5,349.8 L 252.1,349.9 L 251.0,349.1 L 249.9,346.9 L 247.2,346.9 L 247.0,345.8 L 244.1,343.9 L 241.6,343.8 L 244.8,342.4 L 246.8,344.3 L 250.7,345.1 L 251.3,348.1 L 253.6,348.6 Z M 245.7,341.6 L 246.3,341.4 L 245.7,341.6 Z M 247.3,341.8 L 246.9,341.1 L 248.2,341.8 L 247.3,341.8 Z M 223.2,340.9 L 223.6,341.4 L 223.2,340.9 Z M 249.2,341.1 L 248.5,341.6 L 249.2,341.1 Z M 267.5,342.3 L 267.0,342.5 L 266.7,341.9 L 266.3,341.9 L 266.9,342.8 L 264.4,342.5 L 263.9,342.1 L 265.2,341.3 L 263.7,342.0 L 262.2,341.0 L 264.4,340.0 L 265.8,340.0 L 267.5,342.3 Z M 256.5,338.6 L 256.3,339.3 L 256.5,338.6 Z M 222.8,339.6 L 222.9,340.1 L 221.6,339.6 L 219.6,337.3 L 221.8,337.0 L 221.1,338.0 L 221.7,338.2 L 221.8,339.3 L 222.8,339.6 Z M 259.5,335.3 L 258.8,337.0 L 258.2,336.1 L 257.9,336.9 L 256.8,336.7 L 256.7,335.5 L 258.4,335.8 L 259.5,335.3 Z M 261.2,332.3 L 260.3,332.6 L 259.5,332.0 L 260.4,331.8 L 261.2,332.3 Z M 255.0,330.2 L 254.9,331.1 L 254.0,331.4 L 253.1,330.9 L 254.0,329.7 L 255.0,330.2 Z M 274.0,361.9 L 274.4,362.0 L 274.0,361.9 Z M 271.4,359.3 L 271.0,359.6 L 271.4,359.3 Z M 269.3,355.7 L 268.6,355.4 L 269.3,355.7 Z M 267.4,354.2 L 267.0,354.7 L 267.0,354.1 L 267.4,354.2 Z M 254.7,352.4 L 254.1,352.5 L 254.7,352.4 Z M 228.7,345.1 L 228.2,345.6 L 228.7,345.1 Z M 227.7,345.0 L 227.7,345.5 L 227.2,345.1 L 227.7,345.0 Z M 250.2,340.2 L 250.0,340.5 L 250.2,340.2 Z" fill="rgba(13,13,13,0.05)" stroke="rgba(13,13,13,0.18)" stroke-width="0.5" stroke-linejoin="round"/>
  <path data-iso="GRL" d="M -30.0,-246.4 L -27.6,-249.9 L -28.1,-252.0 L -27.7,-254.5 L -19.5,-257.9 L -0.9,-252.4 L 7.3,-244.1 L -6.3,-227.6 L -14.5,-226.5 L -11.6,-222.9 L -12.1,-220.6 L -19.7,-217.0 L -20.4,-214.7 L -30.5,-212.5 L -22.7,-207.0 L -26.2,-202.8 L -27.0,-203.9 L -26.6,-201.8 L -27.5,-200.5 L -30.5,-199.6 Z" fill="rgba(13,13,13,0.05)" stroke="rgba(13,13,13,0.18)" stroke-width="0.5" stroke-linejoin="round"/>
  <path data-iso="HRV" d="M 198.3,286.2 L 200.5,287.2 L 203.6,290.3 L 205.7,290.7 L 207.5,292.0 L 211.3,292.2 L 213.0,290.9 L 214.7,290.7 L 214.3,291.7 L 215.1,292.8 L 214.7,293.6 L 216.1,294.1 L 215.4,294.2 L 215.2,295.2 L 218.1,296.5 L 216.2,296.5 L 215.7,297.0 L 216.3,298.4 L 214.6,299.1 L 213.2,297.4 L 212.0,297.6 L 210.1,296.8 L 207.4,297.6 L 206.3,296.8 L 202.9,296.9 L 201.1,295.8 L 200.4,296.7 L 198.4,296.3 L 197.0,298.1 L 194.9,296.4 L 193.4,296.6 L 192.9,299.9 L 195.0,301.0 L 194.8,301.6 L 195.6,301.8 L 197.0,305.2 L 201.9,309.3 L 203.5,309.9 L 203.6,311.1 L 206.0,313.1 L 206.0,313.8 L 205.2,313.7 L 205.1,313.2 L 200.8,310.3 L 197.5,309.5 L 197.8,309.2 L 194.5,309.6 L 194.5,308.2 L 192.8,307.6 L 188.9,304.3 L 188.9,303.6 L 190.0,303.9 L 189.7,303.2 L 191.6,303.7 L 188.0,301.4 L 187.2,300.2 L 187.4,298.4 L 186.9,297.3 L 185.0,295.8 L 183.2,295.4 L 182.1,298.2 L 181.6,298.5 L 181.4,297.8 L 181.1,299.5 L 180.3,299.4 L 180.4,299.8 L 178.5,297.5 L 179.2,297.0 L 178.3,296.9 L 178.4,295.6 L 177.7,294.1 L 180.3,294.7 L 180.9,294.0 L 183.7,294.3 L 185.1,292.8 L 186.6,294.4 L 187.4,294.0 L 188.9,294.7 L 190.2,294.5 L 189.8,293.3 L 190.5,293.0 L 189.7,292.4 L 192.6,291.5 L 192.7,289.9 L 192.0,289.3 L 192.3,288.5 L 194.9,287.8 L 195.2,287.2 L 196.7,287.2 L 196.4,286.3 L 197.2,285.8 L 198.3,286.2 Z M 211.5,316.7 L 211.9,317.8 L 207.8,315.0 L 206.6,314.7 L 206.8,315.1 L 201.7,313.0 L 206.7,314.6 L 206.2,314.1 L 207.2,314.1 L 207.5,314.8 L 211.5,316.7 Z M 200.7,315.0 L 201.2,315.2 L 200.5,315.4 L 200.7,315.0 Z M 206.2,315.3 L 203.9,315.0 L 206.2,315.3 Z M 202.6,313.6 L 203.0,314.1 L 200.6,314.2 L 199.1,313.5 L 202.6,313.6 Z M 196.5,312.9 L 195.4,313.3 L 195.1,312.9 L 196.5,312.9 Z M 199.5,312.4 L 197.3,311.9 L 198.7,311.7 L 203.0,312.4 L 199.5,312.4 Z M 198.2,311.3 L 197.6,310.9 L 197.7,310.4 L 200.9,311.0 L 198.2,311.3 Z M 197.5,310.8 L 196.2,310.3 L 197.5,310.8 Z M 192.6,308.5 L 192.1,308.3 L 192.6,308.5 Z M 189.7,306.8 L 190.7,307.5 L 189.7,306.8 Z M 190.0,306.1 L 191.0,306.7 L 190.0,306.1 Z M 189.7,305.7 L 188.4,304.6 L 189.7,305.7 Z M 188.9,306.2 L 186.9,304.5 L 188.9,306.2 Z M 187.1,301.5 L 186.1,300.4 L 187.5,301.2 L 188.5,302.1 L 187.3,301.6 L 189.7,303.2 L 188.8,303.4 L 187.1,301.5 Z M 184.2,301.4 L 184.6,302.1 L 183.6,301.4 L 183.4,300.3 L 184.2,301.4 Z M 186.2,299.8 L 185.6,299.6 L 186.2,299.2 L 187.0,300.3 L 186.2,299.8 Z M 184.6,300.7 L 184.0,300.7 L 183.1,298.8 L 183.9,298.4 L 183.0,297.2 L 183.2,296.7 L 184.3,298.3 L 184.6,300.7 Z M 186.1,298.5 L 184.0,297.4 L 184.7,297.0 L 184.9,296.1 L 186.6,298.0 L 186.1,298.5 Z M 196.9,309.6 L 196.2,309.7 L 196.9,309.6 Z M 185.3,303.2 L 185.6,303.4 L 185.3,303.2 Z M 186.6,302.9 L 186.3,302.6 L 186.6,302.9 Z M 182.8,300.7 L 183.0,301.1 L 182.8,300.7 Z" fill="rgba(13,13,13,0.05)" stroke="rgba(13,13,13,0.18)" stroke-width="0.5" stroke-linejoin="round"/>
  <path data-iso="HUN" d="M 241.9,274.5 L 240.3,275.9 L 237.8,276.3 L 236.0,278.0 L 235.9,279.0 L 233.4,282.0 L 232.5,284.6 L 231.1,285.4 L 231.0,286.9 L 229.4,288.3 L 227.8,288.0 L 226.7,289.1 L 225.4,288.8 L 223.9,289.3 L 219.1,288.9 L 217.2,290.3 L 216.0,290.0 L 215.2,290.8 L 213.0,290.9 L 211.3,292.2 L 207.5,292.0 L 205.7,290.7 L 204.0,290.5 L 200.5,287.2 L 198.3,286.2 L 197.3,285.1 L 197.0,283.5 L 195.4,283.3 L 196.7,282.1 L 198.1,282.2 L 197.7,282.0 L 198.3,281.1 L 197.6,280.7 L 198.0,279.9 L 197.8,279.0 L 199.2,278.5 L 199.5,277.8 L 199.1,277.1 L 197.6,276.8 L 198.7,276.0 L 200.3,276.7 L 202.2,276.4 L 201.7,275.1 L 202.9,273.8 L 207.3,276.1 L 213.2,275.8 L 214.1,275.4 L 213.6,274.3 L 214.2,273.7 L 218.3,273.3 L 219.6,272.1 L 221.7,272.9 L 224.4,271.7 L 225.5,269.7 L 227.7,269.3 L 229.8,270.0 L 232.0,269.4 L 234.2,271.3 L 237.8,270.7 L 238.3,272.0 L 239.2,272.0 L 240.0,273.2 L 241.4,273.3 L 241.9,274.5 Z" fill="rgba(13,13,13,0.05)" stroke="rgba(13,13,13,0.18)" stroke-width="0.5" stroke-linejoin="round"/>
  <path data-iso="IMN" d="M 53.6,220.8 L 52.4,220.7 L 52.9,219.2 L 55.4,217.4 L 55.7,218.6 L 53.6,220.8 Z" fill="rgba(13,13,13,0.05)" stroke="rgba(13,13,13,0.18)" stroke-width="0.5" stroke-linejoin="round"/>
  <path data-iso="IRL" d="M 35.6,211.2 L 34.5,211.8 L 33.5,214.3 L 30.9,214.7 L 32.4,215.6 L 29.2,217.0 L 31.4,219.3 L 35.0,220.3 L 36.2,219.2 L 35.9,218.2 L 37.1,217.4 L 38.7,219.4 L 39.7,219.7 L 39.8,220.9 L 41.7,220.3 L 43.4,221.2 L 41.6,221.2 L 41.5,221.9 L 42.4,222.6 L 42.5,224.5 L 43.6,225.5 L 42.8,226.3 L 43.7,227.2 L 42.6,227.4 L 43.4,228.0 L 44.1,231.0 L 41.6,236.6 L 40.7,236.4 L 41.5,236.8 L 41.7,237.9 L 40.0,238.0 L 38.6,237.7 L 38.9,237.3 L 37.7,238.5 L 37.3,237.1 L 37.6,238.0 L 37.1,238.4 L 33.1,238.8 L 33.5,239.2 L 33.2,239.7 L 31.4,239.8 L 30.3,241.2 L 28.7,241.4 L 29.1,240.6 L 27.6,240.6 L 28.4,241.7 L 26.6,242.3 L 27.0,242.4 L 26.8,243.1 L 25.2,242.8 L 25.6,243.4 L 22.7,243.6 L 22.0,244.2 L 20.9,244.3 L 21.4,243.8 L 20.5,243.6 L 17.9,244.6 L 19.8,243.1 L 17.7,243.7 L 20.4,242.5 L 19.7,241.8 L 19.3,242.5 L 15.6,243.4 L 16.8,242.1 L 19.6,240.8 L 15.8,242.0 L 15.1,241.0 L 14.4,241.6 L 14.0,240.7 L 15.0,240.5 L 14.9,239.8 L 18.4,238.3 L 13.7,238.8 L 13.5,238.0 L 15.5,237.1 L 16.0,237.5 L 16.3,236.9 L 18.5,237.4 L 17.6,237.2 L 17.8,236.3 L 17.0,235.9 L 19.2,235.4 L 19.1,234.5 L 25.3,233.6 L 23.8,233.4 L 23.9,232.6 L 21.6,234.3 L 19.6,233.6 L 17.1,234.6 L 20.1,232.9 L 21.1,231.2 L 20.3,231.1 L 21.7,229.2 L 23.1,229.5 L 22.7,229.1 L 24.0,229.3 L 24.3,228.6 L 23.2,228.6 L 23.9,228.2 L 23.4,228.1 L 20.0,228.5 L 19.8,227.9 L 19.4,228.4 L 19.8,227.0 L 18.0,227.8 L 17.4,227.6 L 18.1,226.7 L 15.5,226.8 L 16.6,226.2 L 15.5,225.5 L 18.8,225.1 L 17.3,224.6 L 17.3,223.5 L 19.7,223.2 L 19.3,223.0 L 19.7,222.6 L 17.1,222.4 L 17.3,221.8 L 18.2,222.1 L 17.4,221.1 L 17.8,220.3 L 16.9,220.6 L 17.3,220.2 L 16.6,219.3 L 15.9,220.4 L 16.3,219.2 L 15.9,219.1 L 16.7,218.5 L 17.5,218.8 L 16.9,219.0 L 17.3,219.4 L 18.3,218.9 L 17.8,218.3 L 18.2,218.1 L 21.7,218.5 L 22.6,219.9 L 23.2,218.6 L 26.9,219.4 L 26.1,218.9 L 27.2,218.7 L 26.5,218.4 L 26.8,218.2 L 25.9,217.9 L 27.2,216.8 L 29.0,216.6 L 28.5,216.4 L 29.6,215.2 L 27.3,216.0 L 27.5,215.3 L 25.8,215.5 L 24.9,214.8 L 27.6,214.1 L 26.6,213.6 L 27.0,213.2 L 28.2,213.4 L 27.3,211.8 L 28.2,211.5 L 28.5,210.3 L 29.3,210.6 L 30.6,209.7 L 30.4,210.1 L 31.4,210.5 L 31.8,209.3 L 32.4,210.9 L 32.5,209.8 L 31.9,209.7 L 32.8,209.2 L 33.6,210.7 L 32.7,212.2 L 34.1,211.3 L 33.7,209.0 L 35.5,209.1 L 34.6,208.1 L 37.7,209.5 L 35.6,211.2 Z M 19.0,228.1 L 18.7,228.4 L 19.0,228.1 Z M 16.9,221.8 L 17.0,222.4 L 14.9,221.5 L 16.9,221.1 L 16.9,221.8 Z M 26.8,211.7 L 27.1,212.1 L 26.5,212.1 L 26.8,211.7 Z M 18.0,242.9 L 17.3,243.1 L 18.0,242.9 Z M 14.6,240.3 L 13.8,240.6 L 14.6,240.3 Z M 19.1,229.7 L 18.0,229.3 L 19.1,229.7 Z" fill="rgba(13,13,13,0.05)" stroke="rgba(13,13,13,0.18)" stroke-width="0.5" stroke-linejoin="round"/>
  <path data-iso="ITA" d="M 133.3,290.8 L 134.2,291.2 L 136.9,290.3 L 138.9,290.8 L 140.8,289.2 L 140.6,288.0 L 142.7,286.6 L 143.0,288.3 L 145.5,289.5 L 145.3,290.3 L 146.0,290.6 L 146.2,291.6 L 146.9,291.6 L 147.3,291.0 L 146.9,289.9 L 148.4,288.4 L 148.8,286.2 L 149.8,286.2 L 150.5,287.8 L 153.1,287.2 L 154.2,288.4 L 154.8,288.1 L 154.3,287.6 L 154.7,287.0 L 153.9,286.6 L 153.9,285.9 L 155.0,285.2 L 156.7,285.9 L 156.8,285.2 L 156.2,284.8 L 156.8,283.3 L 160.5,284.0 L 161.7,282.5 L 165.6,282.4 L 168.6,281.5 L 168.3,282.9 L 169.2,283.2 L 170.2,284.7 L 179.1,286.0 L 176.8,287.9 L 177.1,288.5 L 178.6,288.8 L 177.4,290.1 L 178.4,290.3 L 178.1,291.5 L 179.6,292.2 L 180.4,293.1 L 180.1,293.5 L 179.1,293.4 L 179.8,293.2 L 178.2,291.9 L 177.0,292.8 L 176.8,292.2 L 175.1,292.0 L 174.8,293.0 L 170.3,294.6 L 171.4,293.7 L 170.1,293.8 L 168.5,295.6 L 169.0,296.5 L 169.5,296.3 L 169.9,298.0 L 169.9,297.6 L 171.1,298.3 L 170.4,299.5 L 170.2,298.9 L 170.3,299.6 L 169.2,299.4 L 169.9,303.9 L 172.1,305.9 L 178.5,309.2 L 181.6,316.4 L 186.0,319.6 L 186.2,320.3 L 189.1,321.4 L 195.8,321.5 L 196.1,322.5 L 194.1,323.7 L 194.5,324.9 L 202.0,327.7 L 204.9,329.5 L 208.5,330.8 L 212.0,334.5 L 211.2,336.8 L 209.0,336.1 L 207.6,333.5 L 204.4,333.1 L 203.0,332.5 L 203.9,331.9 L 201.5,332.0 L 198.9,334.9 L 199.1,335.8 L 198.2,337.1 L 198.5,337.9 L 202.7,339.8 L 202.8,342.9 L 198.8,344.1 L 198.7,346.7 L 196.0,348.7 L 195.3,350.1 L 192.6,350.0 L 192.3,348.2 L 193.5,347.6 L 194.2,346.1 L 193.7,345.1 L 195.8,344.6 L 196.3,343.7 L 193.3,336.3 L 192.2,335.0 L 190.8,335.6 L 189.7,335.3 L 188.8,334.3 L 187.3,333.8 L 187.9,332.6 L 186.5,330.7 L 183.4,331.4 L 184.3,330.2 L 183.1,329.4 L 181.4,329.8 L 181.2,328.8 L 179.2,326.4 L 178.0,326.7 L 176.2,326.1 L 174.6,326.6 L 173.5,325.3 L 171.8,325.0 L 169.0,322.8 L 167.5,320.9 L 166.2,320.6 L 165.1,318.8 L 163.1,317.9 L 161.3,318.0 L 161.8,317.3 L 161.6,316.7 L 160.2,315.3 L 158.7,314.9 L 158.9,314.0 L 157.1,313.9 L 157.3,311.5 L 155.9,309.7 L 155.4,307.0 L 154.3,305.6 L 152.6,305.0 L 152.6,305.5 L 148.4,303.1 L 148.3,303.5 L 145.2,302.5 L 143.2,303.5 L 140.5,306.6 L 136.6,307.4 L 136.4,306.8 L 137.9,305.3 L 137.6,304.4 L 135.5,304.9 L 133.0,303.9 L 132.0,301.7 L 132.9,300.5 L 133.5,300.5 L 133.2,299.4 L 131.4,298.8 L 130.4,297.3 L 133.9,296.0 L 134.3,294.8 L 133.0,294.1 L 132.9,293.0 L 131.7,292.0 L 133.3,290.8 Z M 170.3,306.6 L 170.7,305.9 L 170.1,306.2 L 170.3,306.6 Z M 167.4,357.8 L 167.6,358.4 L 166.9,358.0 L 167.4,357.8 Z M 169.3,350.1 L 169.9,350.2 L 169.3,350.1 Z M 191.6,347.6 L 192.4,347.8 L 189.4,351.4 L 188.6,353.4 L 188.7,354.4 L 189.7,354.9 L 189.2,355.2 L 190.2,356.6 L 189.0,357.2 L 188.6,359.0 L 184.4,358.1 L 183.0,356.4 L 179.2,355.5 L 175.4,353.3 L 171.9,352.7 L 170.3,351.1 L 170.8,349.6 L 172.2,348.9 L 172.4,348.4 L 173.6,349.5 L 174.7,349.1 L 174.9,348.4 L 176.4,348.2 L 176.9,349.0 L 179.7,349.9 L 181.2,349.4 L 184.6,349.4 L 187.3,348.4 L 188.6,348.8 L 189.6,347.9 L 189.9,348.3 L 191.6,347.6 Z M 187.7,346.7 L 187.9,347.2 L 187.7,346.7 Z M 187.3,346.4 L 187.8,346.3 L 187.3,346.4 Z M 187.0,345.9 L 186.5,345.7 L 187.0,345.9 Z M 143.1,342.1 L 142.8,342.9 L 142.4,342.0 L 143.1,342.1 Z M 142.1,341.3 L 141.7,341.9 L 141.6,341.4 L 142.1,341.3 Z M 180.7,330.4 L 180.2,330.0 L 180.7,330.4 Z M 141.9,327.8 L 141.4,328.3 L 141.9,327.8 Z M 152.3,331.5 L 152.3,332.2 L 151.1,333.6 L 151.9,334.9 L 150.7,341.6 L 150.4,341.9 L 146.9,340.8 L 147.4,341.1 L 147.0,342.7 L 145.8,343.5 L 144.9,343.1 L 144.4,343.6 L 143.8,342.3 L 142.6,341.1 L 143.0,337.3 L 143.9,337.7 L 143.5,337.5 L 143.8,336.6 L 142.7,336.1 L 142.6,335.3 L 143.4,334.8 L 142.6,332.1 L 142.0,331.2 L 141.0,331.2 L 141.3,328.5 L 142.1,329.3 L 143.6,329.5 L 145.6,328.6 L 148.4,326.3 L 149.7,326.9 L 149.9,327.6 L 150.7,327.3 L 150.4,328.1 L 151.4,328.2 L 150.3,328.8 L 151.8,329.4 L 151.4,329.7 L 152.3,331.5 Z M 159.8,318.0 L 160.0,318.5 L 159.8,318.0 Z M 156.7,314.6 L 156.5,315.6 L 154.4,315.2 L 156.7,314.6 Z M 152.6,312.9 L 152.3,313.3 L 152.6,312.9 Z M 169.8,294.9 L 170.4,294.8 L 169.6,295.3 L 169.8,294.9 Z M 171.7,366.9 L 171.0,366.8 L 171.7,366.9 Z M 150.1,326.5 L 150.0,327.0 L 150.1,326.5 Z M 149.8,326.6 L 149.4,326.6 L 149.8,326.6 Z" fill="rgba(13,13,13,0.05)" stroke="rgba(13,13,13,0.18)" stroke-width="0.5" stroke-linejoin="round"/>
  <path data-iso="JEY" d="M 70.9,263.5 L 71.3,264.2 L 69.9,264.1 L 69.8,263.5 L 70.9,263.5 Z" fill="rgba(13,13,13,0.05)" stroke="rgba(13,13,13,0.18)" stroke-width="0.5" stroke-linejoin="round"/>
  <path data-iso="LIE" d="M 150.4,280.1 L 150.8,281.7 L 150.1,281.7 L 150.4,280.1 Z" fill="rgba(13,13,13,0.05)" stroke="rgba(13,13,13,0.18)" stroke-width="0.5" stroke-linejoin="round"/>
  <path data-iso="LTU" d="M 267.4,205.3 L 266.4,208.7 L 268.8,209.2 L 267.4,210.7 L 265.1,210.5 L 264.2,212.1 L 261.8,213.1 L 261.5,215.9 L 260.1,218.3 L 261.2,218.3 L 261.9,219.1 L 261.7,219.8 L 260.0,220.0 L 260.2,219.1 L 259.6,218.5 L 257.9,218.9 L 256.9,220.1 L 255.2,220.1 L 255.0,221.6 L 252.2,222.4 L 250.8,221.7 L 247.0,222.3 L 246.1,221.9 L 246.0,220.3 L 245.2,219.3 L 240.7,217.4 L 240.7,214.9 L 241.7,213.6 L 239.8,211.2 L 236.4,211.5 L 231.6,209.0 L 230.9,209.4 L 230.8,208.2 L 230.3,208.5 L 230.6,206.8 L 229.5,204.2 L 229.4,201.4 L 230.4,201.2 L 231.3,199.9 L 236.5,197.9 L 240.5,198.6 L 242.2,198.0 L 243.2,199.1 L 244.7,198.4 L 247.6,198.6 L 250.6,199.5 L 252.9,199.4 L 255.6,197.7 L 257.0,200.1 L 261.0,200.7 L 265.2,204.6 L 267.4,205.3 Z M 229.0,209.2 L 228.5,209.1 L 229.6,207.0 L 229.6,204.8 L 229.8,207.7 L 229.0,209.2 Z" fill="rgba(13,13,13,0.05)" stroke="rgba(13,13,13,0.18)" stroke-width="0.5" stroke-linejoin="round"/>
  <path data-iso="LUX" d="M 127.1,256.2 L 127.8,258.2 L 129.7,258.9 L 128.7,261.8 L 126.0,262.0 L 124.9,261.1 L 125.5,260.2 L 124.4,258.1 L 126.0,255.8 L 127.1,256.2 Z" fill="rgba(13,13,13,0.05)" stroke="rgba(13,13,13,0.18)" stroke-width="0.5" stroke-linejoin="round"/>
  <path data-iso="LVA" d="M 272.6,186.7 L 273.8,186.7 L 273.7,187.7 L 275.9,189.1 L 275.8,190.5 L 274.8,191.0 L 275.3,191.7 L 274.5,193.7 L 276.4,193.9 L 276.1,194.7 L 277.9,196.6 L 278.5,199.4 L 278.0,200.7 L 276.5,201.0 L 274.6,202.8 L 274.2,204.1 L 270.0,203.8 L 268.9,205.0 L 266.6,205.2 L 261.0,200.7 L 257.0,200.1 L 255.6,197.7 L 252.9,199.4 L 250.6,199.5 L 247.6,198.6 L 244.7,198.4 L 243.2,199.1 L 242.2,198.0 L 240.5,198.6 L 236.5,197.9 L 231.3,199.9 L 230.4,201.2 L 229.4,201.4 L 228.9,199.8 L 229.1,197.0 L 229.6,198.1 L 229.0,196.6 L 229.4,193.8 L 231.7,192.0 L 232.0,189.0 L 234.0,186.2 L 239.2,184.5 L 240.1,184.4 L 240.4,186.1 L 243.6,188.3 L 244.5,191.1 L 247.5,192.4 L 249.3,191.9 L 252.3,189.5 L 251.7,183.2 L 257.1,181.1 L 257.9,182.0 L 258.4,181.0 L 260.6,182.7 L 263.4,183.4 L 263.5,184.2 L 266.7,186.8 L 269.3,185.7 L 272.6,186.7 Z" fill="rgba(13,13,13,0.05)" stroke="rgba(13,13,13,0.18)" stroke-width="0.5" stroke-linejoin="round"/>
  <path data-iso="MCO" d="M 136.1,307.8 L 135.7,307.9 L 136.1,307.8 Z" fill="rgba(13,13,13,0.05)" stroke="rgba(13,13,13,0.18)" stroke-width="0.5" stroke-linejoin="round"/>
  <path data-iso="MKD" d="M 226.1,321.8 L 227.0,322.0 L 227.6,320.3 L 229.7,319.4 L 231.0,320.2 L 232.0,319.1 L 237.7,318.1 L 239.5,319.9 L 241.6,320.7 L 242.8,323.0 L 242.3,323.8 L 242.3,325.7 L 241.0,325.9 L 240.7,327.2 L 236.2,327.1 L 233.0,329.2 L 228.8,329.4 L 227.1,328.9 L 225.6,326.5 L 225.9,325.3 L 225.2,324.2 L 225.9,324.0 L 225.6,322.9 L 226.1,321.8 Z" fill="rgba(13,13,13,0.05)" stroke="rgba(13,13,13,0.18)" stroke-width="0.5" stroke-linejoin="round"/>
  <path data-iso="MLT" d="M 184.9,364.3 L 184.7,364.9 L 184.0,364.7 L 183.3,363.7 L 184.9,364.3 Z M 182.9,363.0 L 183.4,363.3 L 182.4,363.3 L 182.9,363.0 Z" fill="rgba(13,13,13,0.05)" stroke="rgba(13,13,13,0.18)" stroke-width="0.5" stroke-linejoin="round"/>
  <path data-iso="MNE" d="M 211.9,317.8 L 211.5,316.7 L 212.3,315.9 L 211.5,313.8 L 212.9,313.3 L 213.1,311.6 L 214.1,310.8 L 215.3,311.4 L 215.8,311.1 L 214.7,309.7 L 215.2,309.3 L 216.7,309.4 L 216.7,310.0 L 219.4,312.1 L 221.7,312.5 L 224.6,314.2 L 223.5,315.3 L 222.4,315.3 L 222.9,316.0 L 222.1,317.1 L 220.8,317.4 L 220.3,316.1 L 219.6,316.4 L 217.2,319.5 L 217.9,320.1 L 217.9,322.0 L 216.5,321.4 L 214.6,318.8 L 212.4,318.0 L 213.3,318.0 L 213.2,317.3 L 211.9,317.8 Z" fill="rgba(13,13,13,0.05)" stroke="rgba(13,13,13,0.18)" stroke-width="0.5" stroke-linejoin="round"/>
  <path data-iso="NLD" d="M 134.5,228.3 L 134.5,230.6 L 133.4,233.8 L 131.3,233.9 L 130.9,234.8 L 131.2,235.5 L 133.0,235.6 L 133.5,236.4 L 133.3,237.6 L 130.9,239.2 L 131.9,240.0 L 128.7,241.3 L 127.2,240.6 L 127.4,241.1 L 125.8,241.3 L 127.7,244.5 L 126.7,246.7 L 127.3,247.2 L 125.3,248.1 L 125.4,248.8 L 126.7,249.3 L 126.3,250.7 L 124.3,250.7 L 123.7,250.0 L 125.1,247.1 L 122.8,246.0 L 120.9,246.2 L 119.6,244.3 L 118.8,245.1 L 117.8,244.9 L 118.2,244.9 L 117.9,244.2 L 116.9,244.8 L 115.9,244.3 L 115.2,244.6 L 115.3,245.4 L 112.6,244.5 L 111.4,245.1 L 108.8,243.8 L 111.6,243.1 L 113.3,244.6 L 114.5,244.6 L 112.5,243.3 L 114.0,243.3 L 113.4,242.9 L 113.8,242.5 L 111.7,241.3 L 113.1,241.1 L 112.7,239.8 L 113.6,239.6 L 116.1,236.6 L 117.7,230.9 L 118.6,231.5 L 120.0,231.0 L 122.0,229.7 L 123.5,227.8 L 126.2,226.9 L 132.0,226.4 L 132.5,227.4 L 134.5,228.3 Z M 108.1,245.2 L 114.1,245.3 L 113.4,246.1 L 111.3,246.7 L 109.9,246.0 L 108.4,246.4 L 108.1,245.2 Z M 112.9,242.5 L 113.3,242.7 L 112.4,243.0 L 110.5,242.4 L 111.3,241.9 L 112.9,242.5 Z M 118.7,229.6 L 118.1,230.6 L 117.4,230.3 L 118.5,228.9 L 118.7,229.6 Z M 118.6,228.6 L 120.2,227.7 L 118.6,228.6 Z M 122.4,226.6 L 120.6,227.2 L 122.4,226.6 Z M 124.1,226.3 L 126.0,226.3 L 124.1,226.3 Z M 127.8,225.9 L 128.6,226.0 L 127.2,226.4 L 127.8,225.9 Z M 129.3,225.5 L 129.8,225.6 L 129.3,225.5 Z" fill="rgba(13,13,13,0.05)" stroke="rgba(13,13,13,0.18)" stroke-width="0.5" stroke-linejoin="round"/>
  <path data-iso="POL" d="M 214.2,261.4 L 213.9,260.0 L 212.7,259.6 L 212.3,258.0 L 210.5,258.0 L 208.5,256.8 L 208.7,257.2 L 207.4,257.4 L 206.0,256.3 L 205.7,255.8 L 206.8,255.3 L 206.5,254.5 L 204.6,255.1 L 200.9,253.5 L 201.8,255.3 L 199.3,256.4 L 197.2,254.0 L 196.2,253.7 L 197.7,252.3 L 197.1,251.6 L 194.7,252.0 L 194.6,251.3 L 193.4,250.8 L 190.4,250.5 L 189.8,248.9 L 188.9,248.4 L 187.7,248.6 L 187.8,249.8 L 186.7,249.8 L 188.1,246.1 L 187.6,244.6 L 186.0,243.8 L 186.1,242.7 L 185.1,241.4 L 186.3,239.0 L 185.8,238.6 L 186.0,237.5 L 184.8,236.2 L 185.5,234.5 L 181.9,232.0 L 182.1,231.0 L 183.5,230.1 L 184.1,228.3 L 182.9,224.1 L 183.1,223.7 L 185.1,225.1 L 185.4,224.6 L 184.8,224.1 L 185.4,222.7 L 184.1,222.2 L 183.3,223.0 L 182.3,222.2 L 196.0,218.8 L 198.7,216.1 L 204.0,214.2 L 209.5,213.4 L 213.6,214.8 L 214.1,215.7 L 211.6,213.9 L 211.3,214.4 L 212.1,215.2 L 212.5,217.2 L 214.6,218.0 L 219.5,217.0 L 240.7,218.1 L 241.6,217.5 L 245.8,219.9 L 246.8,225.0 L 248.9,229.2 L 249.1,232.9 L 245.4,235.1 L 243.9,237.1 L 247.1,238.9 L 247.4,239.7 L 246.5,243.3 L 247.5,245.0 L 247.1,245.8 L 250.6,249.8 L 249.3,250.2 L 250.2,251.0 L 250.3,252.5 L 249.5,253.7 L 247.4,254.0 L 240.5,260.9 L 241.0,263.4 L 240.6,264.3 L 241.7,265.0 L 241.8,265.7 L 236.2,264.0 L 235.4,262.9 L 233.2,262.1 L 229.5,262.1 L 228.5,263.2 L 226.9,262.3 L 224.4,262.4 L 223.1,263.1 L 222.5,264.2 L 220.6,264.1 L 220.6,262.4 L 219.6,262.3 L 218.5,260.6 L 216.3,262.4 L 215.1,262.4 L 215.1,261.5 L 214.2,261.4 Z" fill="rgba(13,13,13,0.05)" stroke="rgba(13,13,13,0.18)" stroke-width="0.5" stroke-linejoin="round"/>
  <path data-iso="ROU" d="M 241.9,274.5 L 243.7,273.2 L 245.9,274.3 L 251.2,274.9 L 253.3,274.5 L 255.7,276.4 L 257.0,276.1 L 258.2,274.9 L 264.5,274.1 L 265.4,272.3 L 268.0,271.7 L 269.7,272.3 L 271.3,274.2 L 272.1,276.5 L 274.1,278.4 L 274.1,279.1 L 277.5,282.3 L 278.6,284.9 L 278.7,286.8 L 277.7,288.3 L 277.6,290.1 L 278.2,293.1 L 277.4,293.4 L 279.3,295.5 L 281.9,296.3 L 282.5,296.2 L 282.4,295.6 L 283.4,295.9 L 286.1,294.6 L 287.8,295.0 L 288.6,296.8 L 288.1,299.1 L 284.9,299.7 L 283.9,300.5 L 283.7,300.1 L 284.8,299.6 L 284.2,299.1 L 284.6,298.3 L 283.7,298.0 L 283.0,298.5 L 283.5,299.9 L 282.4,300.8 L 283.1,300.3 L 283.8,300.6 L 282.2,301.0 L 282.2,302.2 L 283.3,301.0 L 281.4,303.4 L 281.6,305.8 L 281.0,307.8 L 278.5,307.6 L 276.9,307.0 L 276.4,305.9 L 275.1,306.2 L 274.5,305.6 L 272.8,305.7 L 270.3,304.4 L 264.3,305.7 L 261.8,307.9 L 259.2,308.5 L 246.1,306.7 L 242.0,307.0 L 242.0,305.8 L 243.0,305.1 L 240.6,304.0 L 239.2,302.2 L 239.9,301.4 L 241.1,301.3 L 238.8,300.1 L 236.8,301.9 L 235.9,300.7 L 231.8,299.7 L 231.5,299.2 L 232.7,298.9 L 231.5,298.1 L 232.4,296.9 L 227.5,294.3 L 227.6,292.2 L 226.9,292.2 L 223.9,289.3 L 225.4,288.8 L 226.7,289.1 L 227.7,288.1 L 230.0,287.9 L 231.0,286.9 L 231.1,285.4 L 232.5,284.6 L 233.4,282.0 L 235.9,279.0 L 236.0,278.0 L 237.8,276.3 L 240.3,275.9 L 241.9,274.5 Z" fill="rgba(13,13,13,0.05)" stroke="rgba(13,13,13,0.18)" stroke-width="0.5" stroke-linejoin="round"/>
  <path data-iso="SMR" d="M 170.3,306.6 L 170.1,306.2 L 170.7,305.9 L 170.3,306.6 Z" fill="rgba(13,13,13,0.05)" stroke="rgba(13,13,13,0.18)" stroke-width="0.5" stroke-linejoin="round"/>
  <path data-iso="SRB" d="M 223.9,289.3 L 226.9,292.2 L 227.6,292.2 L 227.5,294.3 L 232.4,296.9 L 231.5,298.1 L 232.7,298.9 L 231.5,299.2 L 231.8,299.7 L 235.9,300.7 L 236.8,301.9 L 238.8,300.1 L 241.1,301.3 L 239.2,302.0 L 240.6,304.0 L 240.0,305.3 L 238.6,305.9 L 238.3,307.3 L 239.5,309.8 L 242.6,312.1 L 240.9,314.3 L 238.8,314.8 L 239.2,315.4 L 238.8,316.6 L 239.6,317.3 L 238.8,318.5 L 237.7,318.1 L 233.0,319.1 L 232.6,318.3 L 233.3,318.0 L 234.3,315.9 L 231.6,315.3 L 231.8,314.6 L 230.8,314.3 L 229.7,312.7 L 227.9,312.1 L 227.8,311.5 L 226.3,311.9 L 226.6,313.0 L 225.3,313.8 L 225.5,314.5 L 224.6,314.7 L 224.5,314.1 L 221.7,312.5 L 219.4,312.1 L 216.6,309.8 L 217.1,308.9 L 218.7,309.1 L 218.8,308.5 L 217.0,305.8 L 219.0,306.0 L 219.6,305.5 L 216.1,303.2 L 216.2,301.8 L 217.9,299.1 L 216.6,298.6 L 215.5,299.1 L 215.3,298.7 L 216.3,298.4 L 215.7,297.0 L 218.1,296.5 L 215.2,295.2 L 215.4,294.2 L 216.1,294.1 L 214.7,293.6 L 215.1,292.8 L 214.4,291.3 L 215.8,290.1 L 217.2,290.3 L 219.1,288.9 L 223.9,289.3 Z" fill="rgba(13,13,13,0.05)" stroke="rgba(13,13,13,0.18)" stroke-width="0.5" stroke-linejoin="round"/>
  <path data-iso="SVK" d="M 239.6,265.1 L 238.0,268.4 L 236.9,269.3 L 236.6,270.9 L 234.0,271.2 L 232.0,269.4 L 229.8,270.0 L 227.7,269.3 L 225.7,269.6 L 224.4,271.7 L 221.7,272.9 L 219.6,272.1 L 218.3,273.3 L 214.2,273.7 L 213.6,274.3 L 214.1,275.4 L 213.2,275.8 L 206.7,275.9 L 204.0,274.0 L 202.1,273.7 L 200.6,271.0 L 201.8,267.8 L 202.8,266.9 L 206.6,266.8 L 209.0,265.3 L 209.6,263.5 L 212.2,261.6 L 214.9,261.4 L 215.1,262.4 L 216.3,262.4 L 218.4,260.6 L 219.6,262.3 L 220.6,262.4 L 220.7,264.1 L 222.5,264.2 L 223.1,263.1 L 224.4,262.4 L 226.9,262.3 L 228.5,263.2 L 229.5,262.7 L 229.4,262.2 L 230.8,261.9 L 234.7,262.5 L 236.2,264.0 L 239.6,265.1 Z" fill="rgba(13,13,13,0.05)" stroke="rgba(13,13,13,0.18)" stroke-width="0.5" stroke-linejoin="round"/>
  <path data-iso="SVN" d="M 178.7,294.5 L 178.1,293.8 L 180.4,293.1 L 178.2,291.7 L 178.4,290.3 L 177.4,290.1 L 178.6,288.8 L 177.1,288.5 L 176.8,287.9 L 179.1,286.0 L 184.8,287.2 L 186.9,285.4 L 188.4,285.0 L 191.1,285.3 L 192.3,284.5 L 193.8,284.4 L 194.9,284.8 L 194.6,283.6 L 195.4,283.3 L 197.0,283.5 L 197.4,285.2 L 198.2,285.8 L 196.6,286.1 L 196.7,287.2 L 195.2,287.2 L 194.9,287.8 L 192.3,288.5 L 192.0,289.3 L 192.7,289.9 L 192.6,291.5 L 189.7,292.4 L 190.5,293.0 L 189.8,293.3 L 190.2,294.5 L 188.9,294.7 L 187.4,294.0 L 186.6,294.4 L 185.1,292.8 L 183.7,294.3 L 178.7,294.5 Z" fill="rgba(13,13,13,0.05)" stroke="rgba(13,13,13,0.18)" stroke-width="0.5" stroke-linejoin="round"/>
  <path data-iso="SWE" d="M 226.5,43.3 L 228.4,44.2 L 228.4,45.5 L 236.4,51.8 L 241.4,53.1 L 243.2,54.6 L 243.9,57.1 L 244.8,56.8 L 247.3,59.7 L 246.0,60.9 L 246.5,65.0 L 245.7,66.4 L 248.0,67.4 L 248.1,68.5 L 246.9,69.6 L 246.7,71.2 L 249.6,76.1 L 248.9,76.8 L 248.8,79.5 L 247.2,80.9 L 247.3,82.9 L 247.7,84.4 L 249.7,86.5 L 250.7,89.6 L 249.1,90.4 L 247.8,89.5 L 246.0,89.4 L 245.7,90.3 L 244.1,89.5 L 244.4,90.3 L 243.5,91.2 L 240.4,88.4 L 240.4,90.5 L 238.7,89.0 L 238.1,89.4 L 238.1,90.7 L 237.3,90.4 L 238.6,91.6 L 237.8,91.2 L 237.9,92.1 L 237.2,92.2 L 238.0,92.4 L 238.0,91.6 L 238.7,93.3 L 234.3,90.9 L 237.3,93.2 L 234.9,93.4 L 236.1,94.3 L 235.4,95.2 L 232.4,95.3 L 232.1,95.8 L 233.9,96.7 L 233.3,97.3 L 231.0,95.9 L 233.2,98.3 L 232.8,98.7 L 233.1,99.6 L 230.7,101.1 L 230.3,102.6 L 229.3,102.7 L 231.1,103.5 L 230.6,103.8 L 231.1,104.8 L 230.0,104.0 L 229.9,104.6 L 232.4,105.9 L 232.7,106.7 L 231.4,106.5 L 233.2,107.6 L 228.8,111.4 L 228.3,113.5 L 226.8,115.9 L 225.6,115.5 L 224.9,117.3 L 224.4,116.4 L 224.3,117.6 L 224.1,116.6 L 223.9,117.7 L 222.4,117.6 L 220.1,120.4 L 218.4,118.8 L 218.9,120.6 L 217.4,120.0 L 217.1,121.6 L 215.7,122.5 L 216.1,123.0 L 215.7,123.5 L 213.6,122.5 L 214.6,123.3 L 213.3,122.9 L 213.7,123.7 L 212.4,123.5 L 213.0,124.3 L 211.8,125.4 L 210.2,125.7 L 212.5,126.2 L 211.3,126.1 L 212.0,126.8 L 211.2,126.7 L 211.8,127.2 L 211.1,127.6 L 209.9,127.2 L 210.4,127.6 L 209.8,128.4 L 208.6,128.2 L 209.5,127.8 L 209.0,127.4 L 208.1,127.9 L 207.3,125.7 L 206.4,125.7 L 208.5,129.0 L 208.5,129.8 L 207.6,129.6 L 208.9,130.5 L 208.1,130.3 L 207.4,131.8 L 206.2,131.8 L 206.5,132.4 L 204.6,131.2 L 203.9,131.8 L 204.3,133.7 L 206.1,134.9 L 205.1,135.0 L 204.8,137.6 L 204.0,138.4 L 204.0,139.7 L 204.4,139.7 L 204.4,140.9 L 205.2,141.0 L 205.0,141.9 L 202.6,140.8 L 203.5,141.2 L 202.3,141.9 L 203.3,142.2 L 202.0,142.5 L 202.9,142.7 L 202.2,142.9 L 203.2,144.0 L 202.4,144.6 L 203.5,145.6 L 202.3,145.5 L 203.1,146.5 L 202.7,146.8 L 202.7,149.0 L 203.3,149.0 L 202.7,149.8 L 203.9,151.8 L 202.9,152.7 L 204.0,153.4 L 205.6,153.2 L 206.2,154.8 L 208.3,153.8 L 208.3,154.7 L 210.3,156.1 L 210.1,156.8 L 211.4,156.5 L 211.4,157.2 L 212.6,157.7 L 210.7,156.8 L 211.4,158.2 L 212.3,158.5 L 212.5,159.6 L 213.0,158.7 L 214.0,160.3 L 213.7,159.5 L 214.1,159.1 L 214.7,161.0 L 215.8,161.5 L 215.6,162.2 L 214.6,161.2 L 214.8,162.0 L 213.5,162.9 L 215.9,163.1 L 214.8,163.1 L 210.3,166.1 L 210.6,167.0 L 209.7,166.3 L 208.6,166.9 L 210.0,167.8 L 211.7,167.6 L 211.4,166.5 L 211.8,166.6 L 212.9,167.7 L 210.5,167.8 L 211.4,169.7 L 208.6,170.8 L 207.8,172.7 L 206.9,171.7 L 207.0,172.5 L 206.9,170.0 L 206.5,170.7 L 206.2,169.4 L 205.6,171.7 L 205.9,172.1 L 205.3,172.3 L 205.7,172.7 L 204.7,172.4 L 205.0,173.4 L 204.0,173.3 L 204.1,173.9 L 201.8,173.9 L 202.6,174.5 L 201.1,175.2 L 196.0,175.1 L 200.2,175.4 L 201.2,176.7 L 199.9,177.3 L 197.6,176.8 L 199.6,177.5 L 200.1,178.3 L 199.1,178.1 L 199.6,178.7 L 200.3,178.4 L 199.6,178.9 L 200.4,179.7 L 200.1,180.5 L 199.0,179.7 L 200.0,181.6 L 199.2,181.7 L 200.1,183.0 L 199.0,182.9 L 198.3,181.8 L 198.7,182.9 L 198.0,182.8 L 199.6,184.4 L 197.7,182.9 L 199.7,184.9 L 198.8,184.8 L 199.1,185.7 L 198.4,185.7 L 199.5,187.3 L 198.0,189.3 L 198.8,191.6 L 197.8,191.6 L 197.6,194.1 L 198.0,194.3 L 196.5,195.7 L 195.1,199.6 L 193.8,201.2 L 193.4,201.0 L 193.6,200.5 L 192.0,200.0 L 190.5,200.7 L 186.1,200.4 L 185.8,200.9 L 186.4,201.8 L 184.5,201.7 L 182.7,203.4 L 182.4,204.8 L 183.6,206.5 L 182.3,208.0 L 173.1,208.1 L 174.2,207.5 L 173.7,206.5 L 174.6,205.1 L 173.7,204.5 L 173.7,203.7 L 170.5,199.1 L 173.0,199.7 L 171.7,197.9 L 173.5,197.6 L 173.8,196.6 L 173.4,195.6 L 172.4,195.6 L 171.5,193.9 L 169.8,192.9 L 168.7,189.9 L 168.1,189.7 L 168.4,188.9 L 167.7,188.5 L 168.1,188.1 L 167.8,187.4 L 167.3,188.6 L 166.7,188.1 L 166.8,185.7 L 166.3,185.3 L 166.9,184.9 L 165.4,184.9 L 166.1,184.1 L 165.0,183.5 L 165.8,182.8 L 166.6,179.5 L 166.1,178.7 L 166.6,178.3 L 164.0,179.3 L 165.1,177.4 L 164.3,177.0 L 164.1,178.3 L 163.3,179.0 L 163.5,177.8 L 162.9,178.2 L 163.5,177.2 L 162.1,178.2 L 162.5,175.7 L 161.8,174.3 L 161.9,172.1 L 161.3,171.8 L 161.9,170.4 L 162.7,170.2 L 163.6,172.4 L 165.1,172.1 L 166.1,168.6 L 165.2,164.7 L 166.7,163.5 L 166.4,161.8 L 168.4,161.5 L 170.7,159.5 L 170.8,156.9 L 171.5,155.7 L 169.1,149.2 L 172.2,148.7 L 173.5,145.2 L 168.5,140.8 L 169.6,134.2 L 168.0,130.7 L 168.5,128.9 L 168.0,126.8 L 168.9,125.6 L 167.3,122.1 L 168.9,119.9 L 168.6,118.3 L 172.6,113.4 L 175.9,112.2 L 180.9,113.2 L 182.1,111.2 L 181.8,107.4 L 178.7,105.9 L 184.6,96.3 L 184.9,91.2 L 185.5,89.8 L 184.8,85.5 L 188.3,85.1 L 191.3,83.4 L 190.9,80.5 L 197.5,72.8 L 197.8,70.5 L 195.7,67.3 L 196.0,66.3 L 198.1,65.4 L 200.2,60.4 L 203.9,57.4 L 208.0,59.3 L 209.8,56.0 L 209.7,50.9 L 211.5,50.4 L 222.3,53.5 L 223.9,51.8 L 221.9,50.9 L 223.8,49.1 L 224.6,46.9 L 224.5,45.3 L 222.9,43.5 L 226.5,43.3 Z M 202.5,188.8 L 197.7,199.9 L 197.7,196.3 L 199.1,193.4 L 199.8,193.1 L 201.4,189.0 L 202.5,188.8 Z M 215.6,183.2 L 215.9,183.6 L 214.0,184.6 L 213.7,185.7 L 213.8,187.3 L 214.8,188.1 L 211.3,190.6 L 210.8,191.8 L 211.2,192.0 L 210.6,192.6 L 209.4,192.9 L 210.5,191.1 L 209.9,191.4 L 210.1,190.7 L 209.2,189.4 L 209.7,188.2 L 209.4,186.5 L 213.1,182.7 L 214.0,183.6 L 214.3,182.7 L 215.6,183.2 Z M 217.2,182.1 L 217.7,182.2 L 216.5,182.6 L 216.2,183.4 L 215.6,182.8 L 216.0,182.1 L 217.2,182.1 Z M 165.6,181.2 L 164.6,182.5 L 164.0,181.5 L 165.6,181.2 Z M 166.1,179.4 L 166.1,180.5 L 165.4,180.8 L 163.7,181.1 L 163.3,180.4 L 165.3,178.8 L 166.1,179.4 Z M 217.6,178.0 L 216.6,177.7 L 217.6,178.0 Z M 211.4,168.5 L 212.7,168.5 L 211.4,168.5 Z M 212.3,156.8 L 211.3,156.3 L 211.1,154.7 L 212.3,156.8 Z M 227.9,116.2 L 228.5,116.1 L 227.9,116.2 Z M 211.8,170.2 L 210.9,171.0 L 211.8,170.2 Z M 213.4,169.0 L 213.0,169.4 L 213.4,169.0 Z M 214.0,168.1 L 213.5,168.4 L 214.0,168.1 Z M 213.1,167.6 L 213.6,167.7 L 213.1,167.6 Z M 209.2,167.1 L 210.2,167.3 L 209.2,167.1 Z M 214.8,166.6 L 214.4,166.7 L 214.8,166.6 Z M 213.0,165.8 L 212.3,166.7 L 212.0,166.0 L 213.0,165.8 Z M 215.2,164.4 L 214.4,164.8 L 215.2,164.4 Z M 214.4,164.8 L 213.7,165.1 L 214.4,164.8 Z M 215.3,162.5 L 214.6,162.6 L 215.1,161.9 L 215.3,162.5 Z M 213.5,158.2 L 214.0,158.6 L 213.5,158.2 Z M 192.8,200.9 L 192.4,201.0 L 192.8,200.9 Z M 200.9,178.3 L 200.2,177.8 L 200.9,178.3 Z M 210.7,171.6 L 209.8,172.2 L 210.7,171.6 Z M 209.9,171.2 L 208.8,171.7 L 209.9,171.2 Z M 206.5,171.3 L 206.4,172.3 L 206.0,172.0 L 206.1,170.5 L 206.5,171.3 Z M 209.4,129.4 L 208.5,129.2 L 209.5,128.7 L 209.4,129.4 Z M 228.2,117.4 L 227.9,117.8 L 228.2,117.4 Z M 228.4,116.4 L 228.1,117.3 L 228.4,116.4 Z M 238.7,94.5 L 237.9,94.8 L 238.7,94.5 Z M 237.0,94.8 L 237.5,94.9 L 237.0,94.8 Z M 237.4,93.8 L 238.4,93.8 L 237.4,93.8 Z M 239.9,92.8 L 240.3,92.7 L 239.9,92.8 Z M 242.5,91.0 L 241.9,91.0 L 242.5,91.0 Z M 248.2,90.5 L 247.4,90.9 L 248.2,90.5 Z M 241.0,91.0 L 241.0,90.3 L 241.5,91.0 L 241.0,91.0 Z" fill="rgba(13,13,13,0.05)" stroke="rgba(13,13,13,0.18)" stroke-width="0.5" stroke-linejoin="round"/>
  <path data-iso="GBR" d="M 35.6,211.2 L 36.9,211.3 L 37.5,209.9 L 43.4,209.8 L 44.2,212.0 L 46.2,213.8 L 44.7,215.6 L 47.0,214.9 L 48.0,217.0 L 47.4,218.1 L 47.1,216.5 L 46.1,215.9 L 46.7,217.2 L 46.1,218.0 L 47.0,217.7 L 47.2,218.5 L 45.0,219.1 L 44.8,220.3 L 43.8,221.0 L 41.7,220.3 L 39.8,220.9 L 39.7,219.7 L 38.7,219.4 L 37.1,217.4 L 35.9,218.2 L 36.2,219.2 L 35.1,220.2 L 31.5,219.4 L 29.2,217.0 L 32.4,215.6 L 30.9,214.7 L 33.5,214.3 L 34.5,211.8 L 35.6,211.2 Z M 66.9,243.1 L 64.8,243.6 L 63.4,245.0 L 61.0,245.0 L 58.9,243.0 L 55.8,243.6 L 55.8,243.1 L 57.3,242.6 L 55.6,242.5 L 55.3,241.5 L 51.4,243.3 L 50.1,242.5 L 52.0,242.2 L 52.2,241.5 L 49.7,242.4 L 49.2,242.0 L 50.2,241.6 L 50.1,240.9 L 48.8,240.9 L 50.5,239.4 L 52.0,239.5 L 55.6,237.7 L 57.0,236.4 L 57.4,234.9 L 58.2,234.7 L 56.9,234.2 L 57.9,233.0 L 56.8,232.3 L 57.3,231.3 L 52.6,232.5 L 56.6,228.6 L 59.0,227.9 L 58.6,227.5 L 60.5,227.9 L 62.4,227.4 L 64.0,228.4 L 63.4,227.0 L 64.3,226.6 L 65.5,227.9 L 66.7,227.4 L 65.2,227.4 L 64.0,225.4 L 65.3,223.8 L 64.3,223.5 L 64.3,222.2 L 65.6,221.6 L 65.8,221.2 L 65.2,221.0 L 66.0,220.1 L 65.6,219.5 L 66.0,219.0 L 65.1,219.9 L 64.3,219.2 L 63.7,220.7 L 63.0,220.3 L 63.2,218.8 L 62.5,219.5 L 60.3,216.5 L 62.0,212.9 L 64.5,212.1 L 60.7,211.9 L 60.7,212.9 L 59.1,212.9 L 57.7,214.0 L 55.0,212.7 L 55.2,214.9 L 51.9,213.1 L 51.3,213.7 L 51.9,215.3 L 49.9,213.0 L 49.8,211.7 L 51.0,212.6 L 50.9,210.5 L 53.6,207.0 L 51.5,204.9 L 51.9,204.5 L 51.7,202.9 L 54.5,202.8 L 52.2,201.3 L 52.5,202.2 L 52.0,202.2 L 52.6,200.0 L 52.0,201.0 L 51.5,200.4 L 51.7,202.2 L 51.3,202.1 L 51.1,203.3 L 50.1,202.0 L 50.4,203.1 L 49.7,202.4 L 49.6,203.7 L 48.9,203.5 L 48.6,202.1 L 51.5,199.3 L 47.9,201.8 L 48.8,204.2 L 47.6,205.6 L 47.8,206.1 L 46.9,207.7 L 47.4,208.4 L 45.6,208.8 L 46.3,205.3 L 47.8,203.6 L 46.4,204.1 L 47.0,202.7 L 46.2,202.9 L 47.0,201.7 L 46.1,202.6 L 47.3,201.2 L 47.5,200.2 L 46.8,200.7 L 47.6,199.5 L 46.9,199.6 L 47.0,198.8 L 47.9,198.5 L 47.3,198.5 L 47.8,197.7 L 49.5,197.6 L 50.5,196.5 L 49.6,197.5 L 47.8,197.4 L 48.0,196.7 L 49.3,196.5 L 48.1,196.7 L 48.8,195.5 L 51.0,194.9 L 49.3,194.9 L 50.1,193.9 L 46.3,197.1 L 44.0,195.7 L 47.2,195.2 L 42.5,194.8 L 45.8,194.3 L 45.1,193.8 L 46.4,193.4 L 44.6,193.2 L 45.3,192.1 L 47.4,192.0 L 45.6,191.3 L 48.2,191.0 L 46.3,190.5 L 47.0,189.4 L 48.2,189.7 L 47.5,189.3 L 47.9,188.8 L 46.0,189.0 L 47.9,187.8 L 45.4,188.5 L 45.2,186.2 L 47.4,186.6 L 45.4,185.5 L 46.3,184.8 L 45.4,184.5 L 45.4,183.5 L 46.2,183.2 L 46.8,184.2 L 46.8,182.6 L 49.4,183.4 L 48.4,182.4 L 50.5,183.5 L 47.9,180.9 L 48.9,181.1 L 49.3,180.3 L 48.3,179.1 L 51.4,179.5 L 49.8,178.1 L 50.0,177.5 L 50.8,177.8 L 50.2,176.5 L 51.0,175.2 L 52.1,175.5 L 52.2,176.3 L 52.5,175.4 L 53.3,176.0 L 52.6,177.1 L 54.5,175.9 L 54.9,176.3 L 54.4,177.1 L 57.6,175.6 L 62.2,175.5 L 62.1,174.7 L 64.5,175.1 L 63.8,176.4 L 64.3,176.9 L 63.8,177.9 L 57.8,182.5 L 57.2,182.2 L 57.7,183.2 L 55.1,182.8 L 57.5,183.7 L 59.3,183.3 L 57.9,185.0 L 57.3,184.6 L 55.0,185.9 L 57.7,185.0 L 57.1,186.2 L 56.0,186.4 L 56.1,187.0 L 61.8,184.7 L 71.5,184.9 L 72.7,185.8 L 73.1,187.3 L 71.6,188.8 L 70.2,192.9 L 68.6,194.6 L 68.0,196.2 L 66.5,197.4 L 62.4,198.5 L 65.4,197.5 L 66.0,198.7 L 67.5,199.3 L 64.9,200.0 L 62.3,201.8 L 58.9,201.0 L 60.2,202.0 L 64.1,202.6 L 67.1,201.5 L 70.6,202.9 L 72.8,205.7 L 74.0,206.1 L 74.8,210.3 L 76.5,214.2 L 77.2,214.7 L 77.0,215.4 L 81.3,216.8 L 82.7,219.0 L 84.7,220.3 L 83.7,221.1 L 86.1,225.3 L 83.4,223.8 L 80.2,224.1 L 83.3,224.1 L 86.7,226.7 L 87.6,229.3 L 85.3,231.6 L 87.8,232.7 L 89.1,230.9 L 93.9,231.2 L 96.5,232.6 L 97.2,234.0 L 97.3,235.3 L 96.0,238.9 L 94.3,240.2 L 93.1,239.4 L 93.9,240.0 L 92.5,240.1 L 94.0,240.1 L 93.4,240.8 L 93.9,241.0 L 92.5,241.7 L 91.9,241.1 L 90.0,242.2 L 91.6,241.9 L 91.5,243.3 L 87.8,244.5 L 90.0,244.3 L 89.1,245.1 L 91.9,245.4 L 95.0,245.1 L 94.7,247.2 L 92.5,248.0 L 91.9,249.2 L 90.4,249.1 L 87.1,250.7 L 83.4,250.0 L 79.8,250.9 L 78.8,249.9 L 77.8,250.4 L 77.9,249.9 L 77.2,249.9 L 77.3,250.4 L 75.2,249.2 L 76.2,250.3 L 74.5,251.0 L 71.2,250.8 L 70.9,251.2 L 71.8,251.3 L 71.7,252.0 L 68.8,251.6 L 68.4,252.6 L 65.6,250.8 L 62.1,251.9 L 61.5,251.3 L 61.3,253.2 L 60.8,253.5 L 61.3,253.7 L 60.1,255.3 L 57.4,254.6 L 56.4,253.2 L 55.8,253.8 L 56.5,254.4 L 53.0,254.2 L 50.9,256.0 L 50.6,255.5 L 50.1,256.4 L 50.6,256.7 L 49.6,257.5 L 47.7,256.1 L 46.1,256.7 L 46.3,255.8 L 48.8,255.0 L 50.6,253.5 L 50.8,252.5 L 52.0,252.8 L 51.5,252.1 L 52.4,252.1 L 53.8,250.5 L 54.2,248.4 L 55.5,248.5 L 56.4,247.9 L 56.2,246.8 L 59.4,246.3 L 64.5,246.8 L 64.8,245.1 L 68.8,241.9 L 66.9,243.1 Z M 77.8,251.0 L 76.4,252.2 L 74.4,251.5 L 76.2,250.5 L 77.8,251.0 Z M 78.6,250.2 L 78.2,250.4 L 78.6,250.2 Z M 91.4,244.9 L 90.2,244.9 L 91.4,244.9 Z M 53.8,228.1 L 53.0,227.7 L 53.8,228.1 Z M 57.1,227.7 L 57.5,227.8 L 57.1,228.3 L 55.0,229.4 L 55.2,228.9 L 54.4,228.9 L 53.9,228.1 L 53.9,227.0 L 55.6,226.7 L 56.4,227.8 L 57.1,227.7 Z M 42.5,208.8 L 42.9,209.0 L 42.5,208.8 Z M 50.5,206.9 L 50.1,207.6 L 48.9,207.3 L 48.3,205.5 L 49.6,205.0 L 50.5,206.9 Z M 50.7,204.5 L 49.6,203.0 L 50.4,203.3 L 50.7,204.5 Z M 43.9,204.7 L 42.1,206.2 L 41.9,205.7 L 42.4,205.4 L 41.9,204.9 L 42.4,204.3 L 40.7,205.2 L 41.1,203.6 L 41.8,203.2 L 42.0,203.9 L 43.1,202.7 L 43.9,204.7 Z M 42.7,201.1 L 43.2,200.8 L 42.9,201.6 L 42.3,201.7 L 42.7,201.1 Z M 45.5,201.0 L 46.2,201.0 L 44.4,204.0 L 43.7,204.0 L 43.6,202.9 L 44.9,202.3 L 44.2,202.0 L 45.5,201.0 Z M 46.2,200.1 L 45.8,200.5 L 46.2,200.1 Z M 46.6,199.5 L 46.6,200.2 L 46.6,199.5 Z M 47.1,198.0 L 47.5,197.9 L 47.1,198.0 Z M 43.0,197.4 L 42.3,197.3 L 43.0,197.4 Z M 38.5,196.7 L 39.1,196.8 L 38.1,197.7 L 37.3,197.1 L 38.5,196.7 Z M 46.2,197.8 L 45.4,198.9 L 42.3,199.5 L 41.6,198.9 L 44.0,198.3 L 42.7,198.3 L 44.0,197.1 L 41.8,196.6 L 43.1,195.6 L 46.2,197.8 Z M 41.0,195.3 L 39.3,196.3 L 41.0,195.3 Z M 34.6,192.0 L 33.4,192.6 L 34.2,191.5 L 34.6,192.0 Z M 41.9,191.5 L 42.4,192.0 L 42.2,192.6 L 41.0,192.0 L 41.9,191.5 Z M 39.9,191.6 L 40.7,191.5 L 39.9,191.6 Z M 44.4,189.2 L 44.0,188.9 L 44.4,189.2 Z M 35.6,188.8 L 35.9,189.0 L 35.5,189.7 L 34.8,189.6 L 35.5,190.5 L 34.9,190.6 L 35.8,190.9 L 34.8,191.1 L 34.1,189.7 L 34.6,188.9 L 34.3,188.1 L 35.6,188.8 Z M 35.4,187.2 L 35.8,187.8 L 34.5,187.5 L 35.4,187.2 Z M 43.7,188.6 L 44.1,186.9 L 44.2,188.5 L 43.7,188.6 Z M 44.3,186.8 L 44.4,186.2 L 44.3,186.8 Z M 36.4,185.4 L 36.6,185.9 L 35.8,185.6 L 36.4,186.3 L 35.1,186.4 L 36.2,186.9 L 33.5,186.0 L 35.1,185.0 L 36.4,185.4 Z M 40.2,188.6 L 38.7,187.4 L 39.2,186.8 L 39.9,187.6 L 39.8,187.0 L 40.2,186.9 L 39.7,185.9 L 42.0,187.4 L 41.3,185.5 L 42.0,184.9 L 43.0,186.1 L 42.8,188.1 L 43.4,188.7 L 43.0,189.0 L 46.5,189.4 L 44.1,191.8 L 45.2,190.2 L 43.8,189.7 L 43.5,190.8 L 43.0,190.0 L 41.9,190.4 L 42.2,190.0 L 40.8,188.9 L 41.9,188.9 L 40.5,187.8 L 40.2,188.6 Z M 35.7,184.8 L 36.2,184.7 L 35.7,184.8 Z M 26.1,183.5 L 26.6,183.7 L 26.1,183.5 Z M 38.1,179.5 L 38.7,179.6 L 38.1,179.5 Z M 37.6,184.5 L 36.4,183.5 L 38.4,182.5 L 36.5,181.9 L 37.7,181.3 L 36.9,181.4 L 36.5,179.9 L 37.9,179.5 L 38.2,180.7 L 38.1,179.8 L 39.2,179.8 L 38.5,178.8 L 42.6,176.6 L 43.0,178.2 L 41.6,179.3 L 43.0,179.5 L 41.4,179.6 L 41.5,180.3 L 39.9,180.9 L 41.3,180.7 L 41.7,181.4 L 40.4,181.6 L 41.0,182.1 L 40.4,182.6 L 39.6,182.6 L 39.2,181.8 L 40.0,181.2 L 39.4,181.2 L 38.9,181.8 L 39.6,183.1 L 38.7,182.9 L 39.0,183.6 L 37.6,184.5 Z M 65.0,173.0 L 65.4,173.0 L 65.1,174.1 L 64.4,173.2 L 65.0,173.0 Z M 62.9,173.5 L 63.7,173.3 L 62.6,173.6 L 61.7,172.5 L 63.0,172.4 L 63.5,173.2 L 62.9,173.5 Z M 66.5,171.6 L 65.9,172.5 L 64.8,171.7 L 63.3,172.2 L 63.1,170.8 L 62.7,171.8 L 62.1,171.1 L 62.4,169.9 L 63.4,169.7 L 64.7,170.5 L 63.9,171.3 L 66.5,171.6 Z M 67.8,170.0 L 66.8,170.3 L 67.3,169.9 L 66.9,169.6 L 67.8,170.0 Z M 64.6,169.9 L 63.8,169.4 L 65.0,169.3 L 64.6,169.9 Z M 65.8,169.1 L 66.3,168.5 L 66.5,169.7 L 65.8,169.1 Z M 68.4,168.1 L 66.8,169.2 L 67.3,168.1 L 68.4,168.1 Z M 64.3,167.8 L 64.9,167.4 L 65.8,168.5 L 64.3,167.8 Z M 73.9,165.5 L 74.4,165.2 L 73.9,165.5 Z M 79.8,153.5 L 79.3,154.1 L 78.8,153.4 L 79.8,153.5 Z M 77.7,155.8 L 78.1,155.4 L 77.5,156.1 L 77.9,156.4 L 77.2,156.5 L 77.7,157.4 L 76.8,157.7 L 77.5,158.7 L 76.9,159.2 L 77.2,159.7 L 76.5,162.0 L 75.8,161.4 L 76.5,157.7 L 75.5,157.5 L 76.0,158.0 L 75.2,158.7 L 74.9,157.7 L 74.1,158.0 L 73.6,157.2 L 75.9,157.2 L 76.6,156.4 L 75.6,156.1 L 75.3,154.9 L 74.2,155.0 L 74.7,154.2 L 75.7,154.7 L 75.1,154.4 L 76.3,153.2 L 75.8,155.9 L 76.9,154.8 L 77.3,155.6 L 76.8,155.8 L 77.7,155.8 Z M 78.4,152.6 L 78.4,153.3 L 77.9,153.0 L 78.2,154.8 L 77.3,154.7 L 77.6,152.4 L 78.4,152.6 Z M 79.0,152.8 L 78.6,152.7 L 78.8,151.4 L 79.9,151.1 L 79.6,152.7 L 79.0,152.8 Z M 76.2,159.3 L 75.8,159.9 L 76.2,159.3 Z M 71.1,158.7 L 70.7,158.9 L 71.1,158.7 Z M 77.9,158.6 L 77.8,159.2 L 77.4,158.4 L 77.9,158.6 Z M 78.9,156.1 L 78.1,156.6 L 78.9,156.1 Z" fill="rgba(13,13,13,0.13)" stroke="rgba(13,13,13,0.30)" stroke-width="0.8" stroke-linejoin="round"/>
  <path data-iso="PRT" d="M 36.5,343.9 L 35.4,344.5 L 34.8,346.6 L 36.5,348.5 L 37.6,348.3 L 37.1,349.6 L 35.4,349.9 L 33.6,352.7 L 34.5,355.5 L 31.6,356.7 L 26.4,355.8 L 23.6,356.5 L 25.2,351.6 L 24.9,351.6 L 24.9,350.4 L 24.3,350.0 L 25.1,348.4 L 25.0,347.2 L 23.9,346.3 L 26.2,346.8 L 25.4,346.5 L 25.1,345.7 L 25.0,346.3 L 22.0,346.8 L 22.3,345.8 L 21.8,345.0 L 22.8,345.1 L 23.9,344.3 L 23.5,343.3 L 25.2,342.0 L 24.0,342.4 L 22.8,344.7 L 20.3,344.8 L 20.1,344.0 L 21.1,341.3 L 20.7,340.0 L 22.1,339.8 L 22.9,338.5 L 24.5,334.6 L 25.0,334.7 L 24.2,334.1 L 25.2,330.9 L 26.5,330.0 L 25.8,330.1 L 25.9,329.4 L 25.3,330.8 L 26.0,327.1 L 25.4,326.4 L 24.7,323.3 L 25.6,323.0 L 24.4,322.8 L 24.5,321.9 L 26.1,320.5 L 28.9,319.7 L 29.0,320.4 L 29.7,320.6 L 28.8,321.7 L 29.8,322.3 L 31.0,321.5 L 31.1,321.9 L 32.3,321.6 L 34.2,322.3 L 35.8,321.8 L 36.2,321.0 L 39.9,321.2 L 40.5,321.9 L 40.4,323.4 L 42.7,324.1 L 41.9,325.2 L 39.7,326.3 L 38.6,327.8 L 37.6,328.1 L 38.5,329.3 L 38.2,332.3 L 38.7,332.9 L 37.0,334.2 L 38.1,335.4 L 37.1,337.7 L 33.4,337.8 L 35.1,339.4 L 35.6,341.3 L 37.3,342.2 L 36.5,343.9 Z M 30.7,356.8 L 31.4,356.8 L 30.7,356.8 Z M 23.3,343.6 L 23.0,343.9 L 23.3,343.6 Z" fill="rgba(13,13,13,0.13)" stroke="rgba(13,13,13,0.30)" stroke-width="0.8" stroke-linejoin="round"/>
</svg>